<svg width="359" height="589" viewBox="0 0 359 589" fill="none" xmlns="http://www.w3.org/2000/svg">
<path d="M329.446 351.589C332.177 352.951 334.519 355.282 336.629 357.467C351.578 373.29 359.477 408.614 358.978 429.67C358.176 463.438 336.591 524.842 312.253 548.732C311.545 549.426 310.794 550.07 310 550.663L319.366 377.846C322.753 377.924 326.278 378.18 329.653 377.904C331.772 377.731 334.154 377.194 335.515 375.391C337.997 372.102 336.752 362.365 336.045 358.424C334.324 356.834 332.817 356.767 330.713 356.026C329.624 354.923 329.636 353.078 329.446 351.589Z" fill="#E7B68A"/>
<path d="M78.7548 132.305C79.7217 140.554 79.3939 149.257 78.8126 157.532C78.285 165.043 76.5106 173.739 78.2462 181.178C78.8745 183.868 80.0536 185.574 82.1797 187.267C82.7428 187.712 83.3123 188.149 83.8881 188.579C86.1529 200.402 85.4048 212.724 86.2099 224.696C87.0711 237.507 89.3838 250.298 89.1509 263.173C88.7918 283.042 72.7315 335.104 90.8766 348.307C90.363 354.989 89.7008 361.977 94.3205 367.394C99.4728 373.434 108.955 377.962 116.843 378.214C118.297 378.26 119.765 377.763 121.139 377.331C124.492 376.276 132.18 377.841 136.32 377.806L141.478 486.823C142.416 506.055 143.845 525.345 144 544.6C133.285 537.198 119.395 522.665 110.714 512.608C97.596 497.412 86.9538 478.483 78.9406 460.074C75.3456 451.817 72.3129 443.301 68.6411 435.085C64.0866 424.895 58.6809 414.857 53.4106 405.027C41.0714 382.014 26.7397 360.024 15.7026 336.283C-20.1619 259.136 9.67302 209.316 62.1719 152.16C64.4615 149.667 78.214 136.481 78.5666 135.163C78.7812 134.363 78.6987 133.157 78.7548 132.305Z" fill="#E7B68A"/>
<path d="M111.609 41.214C111.331 40.9694 110.989 40.6956 110.749 40.3992C107.511 36.386 104.811 24.9273 105.149 19.6935C105.464 14.7937 107.997 10.4933 111.651 7.34748C111.976 7.06585 112.309 6.79256 112.649 6.52762C112.988 6.26269 113.333 6.00611 113.684 5.75788C114.035 5.50964 114.393 5.27031 114.756 5.03989C115.119 4.80946 115.487 4.58794 115.86 4.37533C116.234 4.16271 116.612 3.95956 116.995 3.76587C117.379 3.57218 117.767 3.38768 118.16 3.21236C118.552 3.03759 118.948 2.87256 119.348 2.71728C119.748 2.56199 120.152 2.41645 120.559 2.28065C120.967 2.1454 121.377 2.01988 121.79 1.90412C122.203 1.7889 122.619 1.6837 123.037 1.58853C123.455 1.49335 123.876 1.40875 124.299 1.33473C124.721 1.26015 125.145 1.19614 125.57 1.14271C125.996 1.08872 126.422 1.04559 126.85 1.01331C127.278 0.980469 127.706 0.958205 128.135 0.946516C128.563 0.934828 128.991 0.933717 129.42 0.943179C129.849 0.952641 130.277 0.97267 130.705 1.00328C137.493 1.485 144.773 4.52811 149.154 9.92138C150.75 11.8858 152.067 14.3253 151.71 16.946C151.325 19.7779 150.063 21.1395 147.886 22.8101C147.67 30.3064 147.463 38.2302 144.053 45.0703C141.984 49.2221 138.999 52.964 134.515 54.45C134.34 54.5085 134.164 54.5627 133.989 54.6187C134.751 59.9852 147.921 62.0649 151.908 64.3767C157.975 67.8948 162.416 73.8408 166.625 79.3325C175.015 78.0377 183.817 77.045 191.961 74.6305C223.816 65.1856 243.245 51.7568 278.819 55.5487C284.543 50.9411 291.26 48.6711 298.6 49.5377C305.705 50.3759 312.42 53.8105 316.84 59.5594C318.083 61.1766 319.185 62.9499 320.266 64.6805C322.773 65.922 325.049 67.6485 327.333 69.2573C339.062 77.52 347.344 88.2565 351.998 102C359.378 123.796 356.056 147.647 346.09 167.962C342.002 176.298 332.06 190.718 325.746 197.663C326.396 210.866 329.204 223.855 330.584 236.984C332.094 251.336 330.889 265.975 330.221 280.354C329.915 286.942 330.081 294.129 328.942 300.623L321.349 300.161C321.124 311.219 320.178 322.191 319.19 333.199C322.492 337.539 323.547 342.859 326.294 347.389C327.768 348.489 328.827 349.513 329.909 351.009C330.1 352.502 330.087 354.352 331.178 355.458C333.285 356.201 334.794 356.269 336.518 357.863C337.226 361.815 338.473 371.58 335.987 374.878C334.624 376.687 332.239 377.225 330.116 377.399C326.737 377.675 323.207 377.418 319.815 377.34L310.435 550.646C309.28 559.871 311.353 572.792 305.574 580.562C303.119 583.862 298.777 586.719 294.686 587.269C287.222 588.272 279.133 587.754 271.582 587.791L226.202 587.842L182.349 587.87C174.752 587.88 166.843 588.369 159.299 587.704C156.558 587.464 153.696 586.612 151.558 584.796C142.541 577.136 145.197 555.989 144.068 544.876C143.913 525.608 142.482 506.305 141.543 487.059L136.379 377.966C132.234 378.001 124.535 376.435 121.179 377.491C119.803 377.923 118.333 378.421 116.876 378.374C108.979 378.123 99.4847 373.591 94.326 367.547C89.7005 362.127 90.3636 355.133 90.8778 348.446C72.7098 335.235 88.7903 283.136 89.1499 263.253C89.3831 250.369 87.0674 237.57 86.2052 224.749C85.3991 212.769 86.1481 200.439 83.8804 188.607C83.3039 188.177 82.7338 187.74 82.1699 187.294C80.0411 185.6 78.8606 183.893 78.2315 181.201C76.4937 173.756 78.2703 165.055 78.7986 157.538C79.3806 149.258 79.7088 140.549 78.7407 132.294C78.5671 114.618 74.0598 93.2657 80.2768 76.2218C84.3814 64.9669 96.6301 60.4436 106.623 55.8768C108.925 51.0697 110.325 46.3685 111.609 41.214Z" fill="black"/>
<path d="M222.201 197.99L223 198.351L222.971 198.95C222.244 199.901 221.414 200.406 220.453 201.021C219.722 200.57 219.454 200.526 219 199.725C219.657 198.715 221.124 198.416 222.201 197.99Z" fill="#E7B68A"/>
<path d="M183.652 135.337L184 135.774C183.743 136.279 183.495 136.807 183.145 137.263C182.247 138.432 181.732 139.098 180.26 139.379L179 138.07L179.196 137.333C180.497 136.364 182.123 135.894 183.652 135.337Z" fill="#E7B68A"/>
<path d="M188.754 150.495L189 150.818C188.364 152.153 187.348 153.07 186.333 153.908C185.307 154.756 184.984 154.631 183.84 154.21L183.009 153.481L183 152.925C184.621 151.492 186.871 151.105 188.754 150.495Z" fill="#E7B68A"/>
<path d="M195 161.537C192.408 162.061 188.491 163.248 185.99 162.207C185.079 161.828 185.359 162.1 185 161.266C185.562 160.986 185.233 161.094 186.056 161.039C187.105 160.97 188.13 160.829 189.17 160.678L189.377 160.6L195 161.537Z" fill="#D8CDC1"/>
<path d="M206.066 162.621C207.87 163.072 210.625 163.377 212 164.57L210.795 165.303C209.534 165.82 207.851 165.719 206.559 165.291C205.592 164.969 205.419 164.699 205 163.92L206.066 162.621Z" fill="#E7B68A"/>
<path d="M231.328 116.137L232.652 117.007C232.85 117.459 233.152 117.738 232.91 118.229C232.127 119.813 229.681 120.472 228.192 121.02L227 121.189C227.418 119.747 230.362 117.728 231.328 116.137Z" fill="#E7B68A"/>
<path d="M186 155.547L186.485 155.596C186.754 155.626 187.023 155.66 187.291 155.688C190.472 156.009 192.896 157.121 195.786 158.433C197.675 159.121 199.553 159.826 201.472 160.417C202.446 160.717 203.068 161.109 203.881 161.735L204 162.344C203.403 162.791 202.818 163.227 202.192 163.632C199.514 162.552 196.796 161.743 194.765 159.527C193.239 159.216 191.887 158.768 190.379 159.302C190.084 159.686 189.797 160.029 189.578 160.466L189.369 160.546C188.523 158.713 187.195 157.146 186 155.547Z" fill="#E7B68A"/>
<path d="M116.835 23.1684C117.573 23.2949 118.193 23.559 118.887 23.8661L119 24.9974L118.635 25.3778C117.747 25.2575 116.857 25.1582 115.965 25.08L115.686 25.6832C116.126 26.9259 117.669 27.5974 118.503 28.5819C119.036 30.5442 118.791 32.5554 118.685 34.5784C118.502 34.7142 118.338 34.8897 118.137 34.9876C117.29 35.4009 116.462 35.3773 115.618 35.0348C114.344 33.7061 114.036 32.2399 114.003 30.324C113.943 26.8516 114.805 25.5727 116.835 23.1684Z" fill="white"/>
<path d="M213.456 164.642C216.855 164.885 222.357 166.813 225.231 168.75C226.055 169.306 225.793 168.963 226 170.013L225.594 170.644C223.439 170.9 220.966 168.849 218.864 168.246C217.854 167.956 217.375 168.205 216.561 168.785L216.392 169.85C217.368 170.944 218.192 171.476 219.485 172.125L219.931 172.343L219.688 172.692C217.843 173.097 216.008 173.45 214.142 173.737L214.207 173.482L214.743 173.623L214.008 173.673C215.037 173.079 215.989 172.481 216.93 171.745C215.226 170.104 213.374 169.098 212 167.082C212.037 165.756 212.579 165.558 213.456 164.642Z" fill="#E7B68A"/>
<path d="M190.928 129.274L191.731 129.359L192 129.714C187.518 132.826 179.129 133.443 173.701 137.726L173.678 138.385C174.831 139.221 175.991 139.635 177.429 139.633C177.635 139.633 177.84 139.611 178.045 139.6L178.616 140.106L178.463 141.4C176.318 141.287 173.427 141.195 171.483 140.256C170.471 139.768 170.386 139.591 170 138.628C170.157 138.115 170.151 138.031 170.475 137.521C172.372 134.54 187.012 130.459 190.928 129.274Z" fill="#E7B68A"/>
<path d="M251 190.916L257 192.261C256.854 198.066 256.061 203.791 255.593 209.571L255.303 210.104L254.494 210.116C254.305 209.789 251.587 193.525 251 190.916Z" fill="#E7B68A"/>
<path d="M318.802 333.4C322.147 337.721 323.216 343.017 326 347.528L317 347.547L318.802 333.4Z" fill="#E7B68A"/>
<path d="M258.58 192.937L263 193.623C262.186 199.521 261.232 205.298 259.976 211.126C258.911 211.067 258.285 211.112 257.411 210.473C256.106 207.593 258.3 196.677 258.58 192.937Z" fill="#E7B68A"/>
<path d="M144 63.5895C152.707 66.5451 158.473 72.1446 164 79.0792C162.422 79.7373 161.379 79.7439 159.684 79.7373C159.189 79.7357 158.694 79.7521 158.201 79.7579C154.757 73.2074 149.571 68.4314 144 63.5895Z" fill="white"/>
<path d="M99.983 222.891C101.943 217.919 103.81 212.706 104.36 207.326C104.669 204.305 103.73 199.643 104.769 196.979C105.851 197.119 105.88 197.175 106.674 197.96C108.236 203.5 103.818 218.623 101.26 223.99C98.8614 229.333 95.7515 234.244 90.8214 237.4L90.2345 236.972C90.1595 236.568 89.9557 236.167 90.0087 235.759C90.0584 235.378 92.0132 233.496 92.3792 233.098C95.4132 229.805 97.7381 226.81 99.983 222.891Z" fill="#E7B68A"/>
<path d="M237.047 130.284C243.402 131.916 252.949 136.912 259.331 139.539C261.663 140.499 264.818 141.138 266.886 142.442L267 143.254L266.505 143.765C266.014 143.506 265.526 143.258 265.028 143.015C264.917 147.184 262.399 150.823 260.664 154.537C259.787 154.422 256.584 150.645 255.712 149.826C259.015 147.809 261.879 145.617 264.513 142.747C260.831 141.559 238.888 133.338 237 131.694L237.047 130.284Z" fill="#E7B68A"/>
<path d="M79 100.979C81.1572 106.59 80.6359 113.048 83.6159 118.424C84.9785 120.884 87.3085 122.863 88.8148 125.285C88.8783 125.386 88.9383 125.49 89 125.591C88.208 127.986 83.1406 130.065 80.8979 131.295C79.4136 121.354 79.1658 111.003 79 100.979Z" fill="white"/>
<path d="M211.071 121.189C211.671 121.418 213.065 121.734 213.424 122.254C214.587 123.937 217.267 138.084 216.978 140.562C216.795 142.139 216.28 142.451 215.201 143.421C212.693 142.098 211.286 139.706 210.3 137.017C208.263 131.46 208.695 126.422 211.071 121.189Z" fill="#E7B68A"/>
<path d="M149.987 337.442C154.428 340.982 159.305 344.044 164 347.202L155.501 347.412L145.134 347.547C143.595 346.661 142.312 345.758 141 344.536C143.731 341.829 146.794 339.518 149.987 337.442Z" fill="#E7B68A"/>
<path d="M234.793 118.158C239.151 121.719 241.425 126.397 244 131.341C242.969 130.871 241.949 130.352 240.904 129.916C236.954 128.269 236.153 132.603 232.925 133.93C232.768 133.995 232.609 134.055 232.45 134.117L231.743 134.326C230.814 133.672 230.512 132.584 230.085 131.55L229.798 130.842C229.37 129.81 229.246 129.201 229.408 128.071C229.523 127.268 229.608 126.803 229.379 125.997C229.185 126.042 228.993 126.1 228.797 126.132C227.32 126.37 226.461 125.693 225.368 124.8C224.928 124.441 225.078 124.669 225 124.002C227.01 124.308 229.101 124.473 230.937 123.38C232.778 122.284 234.072 120.621 234.688 118.532C234.725 118.408 234.758 118.283 234.793 118.158Z" fill="#E7B68A"/>
<path d="M315.764 108.053C317.734 108.237 318.673 108.748 319.908 110.34C323.862 115.438 330.991 137.164 332.415 144.113C332.898 146.472 333.175 149.861 332.876 152.247C332.744 153.303 332.953 152.92 332.189 153.526L331.838 152.485C330.784 145.861 328.335 139.914 326.303 133.581C324.388 127.608 323.353 121.026 319.972 115.695C318.239 112.96 314.244 111.947 313 109.373C313.812 108.488 314.65 108.405 315.764 108.053Z" fill="#E7B68A"/>
<path d="M217.096 123.244C221.553 122.94 223.513 124.735 226.844 127.434C227.761 129.944 228.94 132.404 230 134.86L226.005 138.032C224.043 139.454 222.016 140.402 219.821 141.4C219.975 134.658 216.375 127.912 217.096 123.244Z" fill="#E7B68A"/>
<path d="M292.106 100.979C292.29 101.127 292.375 101.172 292.506 101.41C293.16 102.61 293.172 114.766 292.499 116.331C291.414 118.86 286.698 122.091 284.301 123.211C280.913 116.541 285.127 112.035 285.873 105.594C285.887 105.468 285.897 105.341 285.909 105.215C288.038 103.903 290.062 102.425 292.106 100.979Z" fill="#E7B68A"/>
<path d="M283 54.9001C290.055 51.2797 296.616 50.3464 304.137 52.9328C309.031 54.6166 313.231 57.7887 316 62.3074L315.07 62.5789C309.634 61.2119 304.183 59.7262 298.694 58.6085C294.132 57.6794 289.414 57.0775 284.913 55.8949C284.14 55.6916 283.641 55.3697 283 54.9001Z" fill="white"/>
<path d="M161.327 129.274L169.947 134.226C168.684 135.325 167.346 136.53 167.28 138.372C167.242 139.449 167.558 140.298 168.32 141.053C170.83 143.54 174.809 143.36 178 143.03C176.552 144.894 174.961 146.634 173.399 148.399C171.544 150.467 169.699 152.387 167.587 154.18L161.009 154.537C160.966 146.114 161.072 137.693 161.327 129.274Z" fill="#E7B68A"/>
<path d="M219.601 143.421L220 143.509C219.618 144.951 216.725 147.137 215.668 148.386C212.368 152.285 209.719 156.775 206.363 160.6C201.829 158.899 196.824 157.412 192.686 154.842C191.633 154.164 191.566 154.331 190.328 154.575L190.169 153.463L190 154.308C190.364 153.08 191.249 152.256 192.195 151.477C194.886 149.263 209.645 144.227 212.768 144.901C213.901 145.145 214.393 145.866 215.011 146.787C215.082 146.894 215.151 147.002 215.221 147.111C215.381 146.951 215.561 146.812 215.7 146.632C216.935 145.029 217.882 144.441 219.601 143.421Z" fill="#E7B68A"/>
<path d="M242.877 136.347C249.073 138.268 254.804 141.31 261 143.262C255.851 147.083 250.783 150.911 245.801 154.951C242.729 157.372 239.839 159.918 237.015 162.621C236.815 160.929 238.674 159.08 238.987 157.196C240.139 150.259 240.878 143.106 242.877 136.347Z" fill="#E7B68A"/>
<path d="M113.928 104.01C115.623 108.359 117.41 112.696 119 117.082C112.606 120.686 99.2719 126.12 91.7806 123.557C91.5143 123.466 91.2605 123.347 91 123.241C95.1806 121.28 111.414 107.262 113.928 104.01Z" fill="#E7B68A"/>
<path d="M163.771 79.7579C167.79 84.8719 171.737 90.0897 176 95.0157C172.04 101.099 168.823 104.743 162.126 108.053C161.98 98.3374 161.9 89.5555 158 80.438C158.491 80.4323 158.984 80.4158 159.476 80.4174C161.162 80.424 162.201 80.4174 163.771 79.7579Z" fill="#E7B68A"/>
<path d="M302.135 298.032C307.758 298.421 313.441 298.95 319 299.94C318.721 309.381 318.211 318.961 317.19 328.347C314.409 326.041 309.005 313.721 306.221 309.582C304.429 306.917 298.89 301.092 298 298.52C299.228 297.997 300.81 298.106 302.135 298.032Z" fill="white"/>
<path d="M121.044 316.221L121.164 316.439C120.579 322.035 120.191 336.462 121.95 341.435C123.575 346.03 128.022 349.145 128 354.328C127.04 356.149 124.03 356.434 122.448 357.976C120.807 359.576 120.928 361.597 120.817 363.716C119.297 363.068 117.69 362.37 116.278 361.506C112.258 359.043 111.306 355.475 110.231 351.195C107.363 345.324 97.3392 351.37 92.7806 349.211C92.025 348.852 92.273 349.074 92 348.243C92.7914 347.891 92.5401 347.886 93.2691 347.911C99.5578 348.135 106.186 348.196 112.38 346.955L113.11 346.805C114.874 341.485 116.746 336.093 118.014 330.629C119.117 325.878 119.669 320.887 121.044 316.221Z" fill="#E7B68A"/>
<path d="M256.255 152.516L256.617 152.621C261.485 157.02 262.742 169.402 264 175.629C255.754 176.009 247.811 175.52 239.63 174.54C237.379 174.207 235.057 173.934 232.84 173.424C231.71 173.165 230.68 172.91 230 171.878C230.599 169.945 237.074 167.314 239.001 166.033C244.932 162.089 250.58 156.922 256.255 152.516Z" fill="#E7B68A"/>
<path d="M206.443 124.221C207.118 124.967 206.46 128.197 206.49 129.44C206.603 134.11 207.956 138.408 210 142.521C198.764 146.539 187.143 149.489 175.736 152.938C174.745 153.279 174.062 153.564 173 153.522C178.386 147.718 183.539 141.586 187.455 134.592C194.33 131.967 200.299 128.312 206.443 124.221Z" fill="#E7B68A"/>
<path d="M86 189.905C90.7199 192.339 96.1477 193.83 100.662 196.484C101.777 197.14 102.307 198.069 102.599 199.259C104.437 206.707 99.5808 219.465 95.5548 225.842C93.6088 228.757 91.4008 231.112 88.6878 233.358C86.7505 219.027 87.2137 204.338 86 189.905Z" fill="#E7B68A"/>
<path d="M102.016 350.977C103.254 350.824 105.88 350.24 106.999 350.853C108.151 351.484 109.938 358.472 111.951 360.69C114.343 363.326 117.408 364.793 120.475 366.453C120.657 368.353 121.029 370.442 120.998 372.341C120.98 373.52 120.626 374.328 119.833 375.182C117.527 376.299 115.252 375.734 112.82 375.394C107.351 374.326 101.239 371.566 97.2957 367.485C92.7005 362.729 92.9359 357.802 93.0402 351.669C96.0606 351.646 99.0162 351.322 102.016 350.977Z" fill="#E7B68A"/>
<path d="M278.002 64.6C281.268 65.9855 289.407 74.2586 293.536 77.0723C293.741 83.569 294.244 90.1174 293.859 96.6092C291.951 98.4339 289.813 99.8899 287.638 101.4C286.15 102.398 283.553 103.748 281.725 103.98C280.908 104.084 279.87 103.926 279.235 103.417C276.539 101.263 277.453 95.5809 277.122 92.4821C276.295 91.8553 275.348 91.2719 275.159 90.2083C274.542 86.7293 275.9 82.1122 276.226 78.5603C276.542 75.1026 276.019 71.5056 276.463 68.0855C276.63 66.7991 277.321 65.6914 278.002 64.6Z" fill="#E7B68A"/>
<path d="M235.351 133.328C235.5 133.326 235.649 133.306 235.796 133.323C236.781 133.438 237.973 134.293 238.523 135.149C240.436 138.132 236.017 151.895 235.458 156.007C235.026 159.189 235.427 162.606 234.644 165.698C233.834 166.45 233.179 167.09 232.14 167.486C232.6 166.574 233.012 165.665 233.398 164.715L232.95 164.314C231.13 164.464 228.759 166.162 227.388 167.338C227.276 167.435 227.166 167.534 227.055 167.632C225.402 167.944 222.565 166.415 220.891 165.828C217.025 164.047 212.911 163.114 209 161.447C215.61 150.817 225.133 140.167 235.351 133.328Z" fill="#E7B68A"/>
<path d="M253 585.749C254.404 583.991 268.531 579.733 271.747 578.419C279.864 575.106 288.158 570.675 295.082 565.247C297.035 563.715 306.389 555.003 307.402 554.705C308.205 555.722 307.96 556.626 307.98 557.902C307.764 565.507 308.48 575.445 302.52 581.089C300.128 583.354 297.156 584.711 293.949 585.333C287.678 586.549 280.355 585.812 273.932 585.791C266.973 585.769 259.951 585.996 253 585.749Z" fill="white"/>
<path d="M129.184 15.0842C130.798 15.0943 132.265 15.2662 133.826 15.6717C137.317 16.5787 143.162 18.1946 144.966 21.6092C147.303 26.0337 145.152 35.9507 143.674 40.5935C142.032 45.7547 139.325 49.9331 134.499 52.4736C133.588 52.3261 132.679 52.1702 131.781 51.9561C124.963 50.3318 121.444 44.8637 118 39.2339C118.434 38.8461 118.868 38.466 119.261 38.0352C122.263 34.7411 121.448 29.0961 121.303 24.9632C123.313 21.1195 125.687 17.6509 129.184 15.0842Z" fill="white"/>
<path d="M171.529 104.01C176.132 107.999 180.894 111.56 186.338 114.307C193.332 117.834 203.214 122.048 210.997 119.453C215.42 115.847 221.045 112.953 226.928 113.794C227.645 113.895 228.129 114.141 228.744 114.504C228.916 115.054 229.149 115.3 228.872 115.859C227.815 117.995 224.126 120.132 222.031 121.09C218.768 120.792 214.385 119.036 211.316 119.634C210.742 120.265 210.169 120.557 209.31 120.618C203.536 121.03 199.976 127.389 194.417 128.517C194.169 128.245 193.787 127.804 193.503 127.594C190.997 125.74 176.633 132.294 172.872 133.316C169.412 130.869 165.581 128.965 162 126.695C162.02 121.192 162.104 115.689 162.252 110.187C165.568 108.423 168.604 106.368 171.529 104.01Z" fill="#E7B68A"/>
<path d="M265.34 193.947L270.141 194.655C265.733 221.69 262.595 248.881 262.007 276.311C261.842 283.981 261.411 292.537 262.986 300.064C267.792 299.907 272.722 299.147 277.517 298.658L278 303.177L272.025 303.706C268.452 303.894 264.676 304.312 261.114 303.956C257.656 303.609 254.277 302.451 252.104 299.494C250.892 297.844 250.976 295.229 251.021 293.236C251.206 285.103 252.811 276.592 253.859 268.513C257.095 243.548 261.843 218.854 265.34 193.947Z" fill="#E7B68A"/>
<path d="M126.988 3.02394C127.902 2.95883 128.816 2.94185 129.732 2.97302C130.647 3.00473 131.558 3.0843 132.465 3.21173C133.372 3.33972 134.269 3.51473 135.158 3.73676C136.046 3.95934 136.92 4.22811 137.779 4.54307C142.551 6.2375 147.275 9.64639 149.364 14.3632C149.88 15.526 150.326 17.046 149.677 18.2479C149.191 19.1452 148.48 19.5367 147.571 19.8964C147.321 19.7161 146.887 19.409 146.678 19.2304C146.168 18.7955 145.757 18.3539 145.195 17.98C142.449 16.1562 138.855 14.9233 135.729 13.9259C122.634 9.74322 125.89 18.5484 120.203 21.1744C118.839 21.8046 116.817 21.2837 115.3 21.6268C113.858 21.9531 112.851 22.8212 112.131 24.0866C111.019 26.0431 110.163 29.2617 110.817 31.4837C111.649 34.3066 114.898 35.6212 117.259 36.9709C116.52 37.4962 115.786 38.0274 115.056 38.5644C115.867 42.6118 122.144 49.286 125.562 51.5881C127.741 52.8018 129.871 53.4812 132.321 53.9536C132.226 57.4544 133.522 60.7798 133.296 64.2137C132.697 65.3906 132.3 66.0659 131.104 66.772C128.345 68.4022 122.493 67.373 119.567 66.4749C114.232 64.8364 110.603 61.6887 108.105 56.8258C109.429 54.154 113.89 43.6978 114.018 41.3247C114.084 40.1061 113.395 39.4283 112.605 38.5919C109.719 35.5361 108.279 29.8502 107.472 25.7443C106.518 20.8956 106.871 16.1278 109.826 11.9969C113.825 6.40612 120.477 4.10987 126.988 3.02394Z" fill="white"/>
<path d="M106.063 58.5368C107.488 61.1985 109.04 63.197 111.467 65.071C116.362 68.8506 123.165 70.5927 129.341 69.7279C131.569 69.4167 133.607 68.4987 134.888 66.5957C136.246 64.5797 135.676 62.5214 135.268 60.3228C143.985 65.4553 150.872 71.1272 156 79.9106C151.196 83.3168 141.417 86.5577 135.41 89.8452C128.451 93.653 122.648 98.7514 116.042 103C113.342 95.6482 111.436 87.9687 108.522 80.7132C105.499 73.1822 101.733 67.5094 94 64.2153C97.9684 62.2135 101.989 60.3207 106.063 58.5368Z" fill="white"/>
<path d="M146 546.621C149.738 547.876 156.93 553.697 160.747 556.193C172.819 564.088 185.506 572.463 198.988 577.744C203.184 579.362 207.416 580.881 211.683 582.302C213.791 582.987 216.966 583.468 218.821 584.541C219.365 584.856 219.638 585.19 220 585.67C207.52 586.098 194.892 585.742 182.397 585.745C174.396 585.747 165.385 586.644 157.557 585.255C155.267 584.849 153.194 583.906 151.49 582.299C145.328 576.482 146.121 555.171 146 546.621Z" fill="white"/>
<path d="M280 298.739C286.912 298.148 294.78 297.651 301.681 298.438C300.333 298.512 298.724 298.404 297.474 298.923C298.38 301.475 304.016 307.256 305.839 309.901C308.672 314.009 314.17 326.235 317 328.524C316.734 334.796 315.607 341.285 314.913 347.542L293.09 347.547C288.114 332.736 281.111 314.281 280 298.739Z" fill="#E7B68A"/>
<path d="M91.0235 123.211C88.565 120.886 86.6642 119.042 85.2108 115.887C83.5528 112.287 83.0705 108.386 82.2684 104.543C80.1149 94.2236 78.4576 87.4183 82.3231 77.0301C83.7168 73.2869 86.2333 68.7916 90.0863 67.1683C91.9035 66.4022 93.893 66.4517 95.6919 67.246C106.348 71.9504 110.246 93.6302 114 103.625C111.48 106.937 95.2129 121.213 91.0235 123.211Z" fill="white"/>
<path d="M163.59 350.032C176.767 349.58 323.619 349.208 325.813 350.178C326.792 350.611 327.467 351.382 327.751 352.433C328.068 353.609 328.139 354.286 327.625 355.362C326.692 356.002 325.894 356.215 324.788 356.308C321.931 356.548 318.923 356.204 316.04 356.208L294.335 356.367L192.079 356.499C171.386 356.656 150.693 356.684 130 356.582C130.225 355.121 130.277 352.959 131.161 351.762C135.393 349.611 157.696 350.148 163.59 350.032Z" fill="#E7B68A"/>
<path d="M279 59.034C280.389 57.6675 281.788 56.581 283.405 55.5052C284.043 55.9635 284.54 56.2777 285.309 56.476C289.788 57.63 294.483 58.2174 299.023 59.124C304.484 60.2147 309.908 61.6645 315.318 62.9985L316.243 62.7335C316.7 63.3618 317.118 64.0151 317.498 64.6933C319.385 67.9996 320.762 71.7491 321.867 75.3887C324.388 83.6993 325.823 92.4616 327.935 100.899C329.997 108.96 332.014 117.032 333.987 125.115C335.044 129.437 336.482 133.977 336.882 138.405C337.283 142.839 336.62 147.222 335.526 151.505C334.701 141.171 329.071 122.5 324.317 113.358C322.817 110.474 320.784 107.165 317.486 106.262C315.65 105.758 314.337 106.24 312.755 107.216C309.201 109.407 305.063 109.388 301.365 111.264C299.354 112.285 297.552 113.96 295.82 115.403C295.408 101.809 297.41 88.1013 295.001 74.6304C288.527 71.4875 282.206 65.554 279 59.034Z" fill="#E7B68A"/>
<path d="M115.69 122.2C116.261 122.315 116.494 122.791 116.688 123.266C121.96 136.14 126.082 143.576 138.753 150.325C152.065 157.415 166.424 157.847 180.605 153.454C183.034 154.403 185.392 156.286 186.482 158.725L186.266 159.277C185.023 159.174 183.874 158.939 182.722 159.532L182.424 160.505C183.537 168.864 197.792 169.323 202 172.891L201.69 173.938C199.747 175.867 196.945 176.234 194.379 176.81C195.27 176.307 196.343 175.808 197.069 175.082C197.635 174.515 197.646 174.439 197.67 173.617L196.908 173.489C194.529 174.204 192.612 175.784 190.621 177.218C181.816 180.354 165.09 169.433 155.58 166.833C144.12 163.7 132.158 164.832 120.948 160.163C106.905 154.314 96.5707 139.918 91 126.197C99.738 127.638 107.571 125.323 115.69 122.2Z" fill="#E7B68A"/>
<path d="M235.209 187.884C239.435 188.371 243.686 189.454 247.861 190.299C250.142 198.588 252.289 208.38 250.062 216.885C249.241 220.018 247.848 222.924 245.772 225.395C239.364 233.02 221.141 243.558 212.177 248.744C209.484 250.149 206.832 251.467 204 252.558C206.461 234.628 208.506 216.549 210.449 198.551C212.366 200.246 214.842 201.973 217.274 202.747C225.318 205.309 227.327 194.573 231.475 190.327C232.474 189.305 233.974 188.578 235.209 187.884Z" fill="#E7B68A"/>
<path d="M320 64.6C322.525 65.8452 324.818 67.577 327.119 69.1907C338.936 77.4788 347.28 88.2481 351.968 102.034C359.403 123.896 356.056 147.821 346.016 168.198C341.898 176.559 331.882 191.023 325.521 197.989C323.582 179.227 326.663 161.891 327.929 143.331C329.224 147.525 329.093 153.496 332.012 156.76C332.72 157.051 332.875 157.246 333.649 157.091C335.569 155.74 336.443 153.368 337.237 151.225C338.695 147.297 339.386 142.522 339.042 138.332C338.42 130.757 333.752 115.141 331.744 107.181C328.312 93.5808 325.666 77.2259 320 64.6Z" fill="#E7B68A"/>
<path d="M155.773 79.7579C157.474 83.2881 158.466 86.7388 159.053 90.6191C160.333 99.064 159.974 107.877 159.888 116.397C159.761 129.106 159.379 141.83 159.508 154.537C146.014 152.145 133.096 147.909 124.904 136.044C121.6 131.259 119.443 125.698 118.049 120.07L121.401 117.384L116 103.058C122.576 98.7709 128.352 93.6259 135.278 89.7832C141.258 86.4657 150.991 83.1951 155.773 79.7579Z" fill="#E7B68A"/>
<path d="M304.428 118.231C305.498 118.191 306.621 118.11 307.689 118.196C310.069 118.39 312.267 119.818 313.732 121.671C317.558 126.512 317.293 134.406 316.55 140.242C314.896 153.226 303.039 180.98 292.404 188.925C290.603 190.27 288.559 191.429 286.372 191.985C272.972 195.385 248.944 187.108 234.789 184.994L231.672 186.442C228.587 187.84 226.556 190.047 224.263 192.453C222.872 193.911 220.512 197.045 218.489 197.084L217.716 195.914L216.828 197.842L215.732 199L214.765 198.381L216.066 198.643L214.611 198.801C213.848 196.603 218.061 194.885 218.454 192.611C216.639 188.14 207.193 188.267 204.518 183.864C204.015 183.036 203.818 182.412 204.2 181.483C204.799 180.021 207.089 178.759 208.439 178.039C222.196 170.704 239.225 176.887 253.876 177.428C262.252 177.737 271.565 177.299 279.348 173.916C282.097 165.389 287.338 157.545 289.783 148.924C291.962 141.236 290.605 133.564 294.585 126.242C296.893 121.998 299.847 119.592 304.428 118.231Z" fill="#E7B68A"/>
<path d="M88.0338 125.232C87.7106 130.389 98.521 144.884 102.021 148.862C119.272 168.468 134.144 163.785 156.429 169.129C156.672 177.18 157.119 185.31 156.97 193.361C132.857 197.411 105.321 201.238 83.945 186.03C81.6545 184.4 79.9465 182.636 79.4891 179.772C78.1043 171.096 80.0443 161.308 80.5863 152.588C81.0338 145.4 80.7893 138.273 80.4205 131.089C82.5279 129.826 87.2897 127.691 88.0338 125.232Z" fill="#E7B68A"/>
<path d="M186.884 164.722C189.658 164.447 192.389 164.141 195.132 163.632C196.784 164.258 199.479 164.815 200.585 166.162L200.774 167.257L201.323 167.452C202.1 166.884 202.161 166.542 203.156 166.699C205.222 167.025 207.153 167.987 209.211 168.408C210.221 169.374 211.776 170.414 212.016 171.79C211.459 172.454 210.905 173.088 210.288 173.697C211.171 174.432 211.89 174.289 213 174.387L212.243 174.778L211.905 174.483L211.899 174.859C208.54 176.1 205.19 177.363 201.846 178.645C201.913 178.981 202.12 179.332 202.263 179.644C202.925 179.873 203.556 180.121 204.194 180.411C203.703 181.478 202.745 182.115 201.866 182.845C202.966 184.494 203.971 186.326 205.567 187.525C205.018 188.994 203.642 191.795 203.939 193.351C204.338 195.436 206.297 196.249 207.936 197.254C207.885 204.733 206.141 212.975 205.243 220.442C203.969 231.044 203.314 242.113 201.239 252.558C186.041 250.594 171.008 242.365 159.924 231.838C158.658 222.129 159.266 211.808 159.329 202.004C159.397 191.655 159.192 181.357 159 171.013C167.227 174.126 179.559 181.754 187.912 181.001C192.42 180.595 197.083 179.086 201.484 177.993C202.582 176.889 203.816 175.721 203.832 174.025C203.843 172.908 203.231 172.078 202.406 171.415C199.786 169.309 195.703 168.705 192.581 167.503C190.63 166.752 188.72 165.728 186.884 164.722Z" fill="#E7B68A"/>
<path d="M155.659 195.968L156.547 196.064C157.539 198.792 156.589 216.521 156.716 220.76C156.994 230.116 157.77 239.463 158.577 248.784C159.427 258.615 160.781 268.806 159.423 278.638C158.071 288.426 154.392 298.134 151.388 307.503C149.656 312.907 147.654 318.419 147.413 324.156C147.25 328.065 148.008 331.687 148.799 335.492C142.99 339.878 137.342 344.981 129.836 345.526C128.426 345.434 127.177 345.363 126.062 344.339C122.2 340.792 123.09 331.698 123.086 326.801C123.073 313.353 122.684 298.639 125.501 285.459C129.214 268.093 136.672 251.785 140.094 234.295C142.411 222.454 142.948 210.268 142.471 198.22L155.659 195.968Z" fill="#E7B68A"/>
<path d="M269 271.275C276.945 256.361 294.555 239.836 305.381 225.968C311.411 218.245 316.832 207.786 323.56 201.021C325.106 214.635 327.657 228.166 328.653 241.832C329.393 251.99 328.784 262.268 328.357 272.429C328 280.926 327.805 289.575 326.958 298.032C315.613 296.993 304.297 295.813 292.91 295.373C289.948 292.718 285.116 291.06 281.701 288.808C275.099 284.456 270.678 279.256 269 271.275Z" fill="white"/>
<path d="M311.062 358.03C317.777 357.96 326.815 357.011 333.221 358.42C333.807 358.871 333.923 358.843 334.187 359.593C335.17 362.386 335.391 370.743 334.122 373.439C332.499 374.693 330.619 374.921 328.611 375.066C322.535 375.505 316.189 375.061 310.085 375.06L276.255 375.341L147.128 375.767C139.294 375.867 131.35 376.09 123.624 374.641C123.364 370.728 122.042 362.278 124.281 359.102C129.302 357.268 180.955 358.234 189.556 358.234L311.062 358.03Z" fill="#E7B68A"/>
<path d="M272.282 194.789C277.344 195.603 283.096 195.806 288.04 194.229C297.355 191.257 302.604 182.477 306.908 174.275C313.761 161.221 323.593 140.62 318.74 125.738C317.553 122.101 315.159 118.6 311.604 117.006C308.712 115.709 305.123 115.777 302.195 116.918C295.489 119.534 291.129 128.469 290.073 135.294C289.399 139.655 289.495 144.138 288.344 148.42C286.581 154.976 283.075 162.126 280.189 168.301C279.42 169.948 278.256 173.121 276.457 173.78C276.284 173.414 276.236 173.364 276.159 172.901C275.776 170.595 276.351 167.428 276.527 165.051C277.583 150.881 281.185 138.407 289.639 126.801C293.716 121.204 300.222 112.094 307.612 111.159C310.491 110.794 313.051 111.786 315.233 113.656C319.292 117.136 321.177 122.311 322.613 127.317C323.737 131.235 325.055 135.337 325.604 139.377C327.127 150.571 323.806 163.402 323.229 174.777C322.787 183.494 323.373 192.206 323.896 200.905C317.099 207.729 311.623 218.277 305.532 226.066C294.596 240.054 276.806 256.72 268.781 271.762C270.476 279.812 274.941 285.057 281.611 289.446C285.061 291.718 289.942 293.39 292.934 296.068C283.508 296.375 274.107 297.029 264.729 298.032C263.682 289.97 264.005 281.397 264.228 273.28C264.953 246.829 268.626 220.935 272.282 194.789Z" fill="#E7B68A"/>
<path d="M108.823 197.99C119.632 199.433 129.781 198.979 140.595 198.347C142.458 219.402 137.646 239.458 131.221 259.272C128.44 267.848 125.408 276.414 123.499 285.244C121.957 292.374 121.321 299.803 120.336 307.036C118.636 319.524 116.329 331.3 112.313 343.266C112.082 343.938 111.893 344.301 111.515 344.878C106.979 347.171 95.3939 346.667 90.3324 345.85C76.5705 332.538 89.3029 287.798 90.8016 269.762C91.6214 259.887 90.582 250.011 89.8641 240.162C91.5145 239.203 93.1061 238.021 94.5285 236.741C105.006 227.301 108.16 211.499 108.823 197.99Z" fill="#E7B68A"/>
<path d="M166 79.1274C174.42 77.8224 183.254 76.8219 191.428 74.3886C223.399 64.87 242.898 51.3362 278.602 55.1578L275.687 58.4846C276.33 59.4472 277.46 60.7614 277.632 61.8847C276.569 63.2915 274.875 65.1072 274.409 66.8212C273.582 69.8569 274.773 73.6044 274.623 76.7639C274.431 80.795 272.276 85.3309 272.751 89.2754C273.024 91.5413 274.478 93.1542 274.995 95.2745C275.609 97.7844 275.034 100.567 275.854 103.039C276.159 103.961 276.71 104.583 277.47 105.166C279.122 106.431 281.779 106.171 283.71 106.017C281.766 111.336 278.928 117.73 281.504 123.302C282.521 125.503 283.849 126.625 286 127.571C277.266 145.581 273.602 152.62 274.015 173.285C271.528 174.644 269.412 175.28 266.619 175.758C269.656 164.625 272.927 153.744 276.426 142.764C278.06 137.639 278.742 132.889 281.627 128.229L281.602 127.332C280.741 127.186 281.136 127.108 280.312 127.676C278.876 128.666 277.912 129.979 277.223 131.587C275.845 134.804 275.445 138.485 274.431 141.839C271.334 152.087 268.134 162.268 265.189 172.567C264.245 167.4 263.193 162.244 261.678 157.214C264.367 151.974 266.915 146.588 270.132 141.657C262.505 138.225 254.567 135.605 247.01 131.985C243.104 124.245 240.499 117.542 231.906 114.161C231.185 112.869 230.656 111.58 229.314 110.852C228.488 110.642 228.208 110.768 227.48 111.101C224.93 112.268 221.642 111.953 218.898 112.702C214.411 113.926 211.104 116.499 207.114 118.716C193.763 117.392 182.615 111.205 172.344 102.748C174.329 100.124 176.232 97.5488 177.629 94.5408C174.647 89.0339 169.621 84.3112 166 79.1274Z" fill="#E7B68A"/>
<path d="M253.56 212.137L259.958 213.395C255.934 232.689 253.176 252.624 250.702 272.185C249.76 279.63 248.201 287.617 248.33 295.116C248.38 297.981 249.516 300.587 251.63 302.521C257.948 308.301 270.461 305.821 278.284 305.243C281.783 319.682 286.266 333.46 291 347.53L178.717 347.542L168.045 347.547C162.453 343.924 156.48 340.424 151.551 335.894C150.441 332.129 149.81 328.311 150.051 324.378C150.42 318.339 152.553 312.564 154.424 306.876C157.584 297.266 161.334 287.061 162.327 276.935C163.685 263.08 160.846 248.907 160.412 235.034C170.656 243.184 181.979 250.414 194.792 253.502C197.277 254.101 200.568 254.896 203.122 254.54C209.85 253.603 217.903 247.598 223.654 244.021C230.741 239.613 244.791 231.086 249.097 224.361C251.477 220.645 252.557 216.395 253.56 212.137Z" fill="#E7B68A"/>
<path d="M138 378.802L318 377.863C315.265 420.139 313.402 462.517 311.065 504.822L309.037 542.19C308.715 547.298 308.799 553.025 307.861 558.023C307.841 556.75 308.087 555.848 307.283 554.833C306.269 555.13 296.906 563.825 294.952 565.354C288.022 570.771 279.72 575.193 271.597 578.499C268.378 579.81 254.238 584.06 252.833 585.814C249.179 586.25 245.102 585.896 241.41 585.894C234.266 585.892 227.087 586.031 219.95 585.771C219.588 585.292 219.315 584.957 218.771 584.642C216.916 583.568 213.742 583.087 211.634 582.401C207.368 580.98 203.137 579.46 198.941 577.841C185.461 572.557 172.776 564.177 160.706 556.278C156.89 553.78 149.699 547.956 145.962 546.7L141.079 444.532C139.943 422.698 138.354 400.653 138 378.802Z" fill="#E7B68A"/>
<path d="M187.535 446.123C189.501 441.622 198.419 427.43 201.318 423.77C202.638 422.103 204.14 420.61 205.93 419.457C211.756 415.706 234.404 413.101 241.1 414.744C251.166 417.215 255.712 427.787 260.516 435.952C262.845 433.114 264.888 428.462 267.733 426.315L268.352 426.599C269.722 430.568 267.074 441.575 266.297 446.08C270.278 456.213 278.69 466.479 282 476.366C281.414 480.052 279.543 489.68 276.884 492.011C277.034 492.463 277.069 492.518 277.149 493.064C277.821 497.671 275.524 503.567 272.523 506.985C265.928 514.497 254.8 513.472 245.774 513.827C245.602 517.138 245.66 520.937 244.583 524.077L243.755 524.389C242.034 523.818 222.185 505.067 216.79 501.694C216.637 501.598 216.481 501.508 216.327 501.414C222.726 492.57 230.628 484.819 237.394 476.236C238.068 475.38 240.637 471.283 241.43 470.908C241.672 470.793 241.951 470.789 242.212 470.73C244.836 474.267 245.567 481.35 246.565 485.656C253.357 485.736 260.116 485.206 266.906 485.709C261.099 479.894 252.702 469.88 249.449 462.163C245.565 461.288 224.701 458.157 223.041 456.62C223.454 454.115 231.785 447.429 233.944 445.342C230.601 438.899 226.551 432.627 222.772 426.431C218.233 433.693 214.763 441.934 211.389 449.788C209.137 449.689 206.904 449.271 204.679 448.93C210.144 459.964 214.916 471.296 218.994 482.923C214.126 481.743 209.491 479.696 204.848 477.838C201.562 482.134 198.734 486.685 195.881 491.278C200.484 491.258 217.337 489.515 220.532 491.302L220.744 492.419C212.081 492.854 203.392 492.995 194.72 493.193C193.342 495.169 191.746 497.216 190.687 499.385C189.731 501.342 189.026 503.85 189.788 505.994C192.917 514.799 216.052 507.659 223.072 510.678L223.085 511.291C222.533 511.597 222.541 511.623 221.829 511.84C218.939 512.719 200.295 512.947 196.977 512.411C194.953 512.084 192.96 511.295 191.147 510.353C183.85 506.56 172.959 493.78 170.701 486.07C168.312 477.911 174.933 469.305 178.762 462.533C174.889 459.234 170.969 455.995 167 452.814C171.38 451.763 176.013 451.392 180.461 450.661C186.309 449.701 192.11 448.452 197.957 447.47C194.42 447.177 191.017 446.841 187.535 446.123Z" fill="black"/>
<path d="M265.624 449.611C269.184 456.499 277.87 470.674 280 477.202C278.922 481.87 276.138 487.287 276.913 492.053C274.391 488.522 270.892 486.572 267.745 483.704C261.931 478.403 255.616 469.84 252 462.788C255.256 462.402 261.355 462.229 263.526 459.419C263.772 459.102 263.817 458.948 263.957 458.611C264.673 455.617 265.196 452.658 265.624 449.611Z" fill="#E7B68A"/>
<path d="M241.412 474.874C242.477 477.671 242.914 485.437 244.622 487.261C248.05 490.922 266.247 484.832 272.572 490.357C274.322 491.886 274.904 494.047 274.99 496.277C275.128 499.835 273.779 503.084 271.266 505.626C264.43 512.537 253.1 511.606 244.065 511.7C243.395 514.852 243.214 518.153 242.894 521.358C235.473 514.082 226.977 507.587 219 500.904C222.237 496.482 226.223 492.453 229.889 488.37C233.808 483.936 237.649 479.437 241.412 474.874Z" fill="#E7B68A"/>
<path d="M199.67 448.753C200.666 448.57 201.311 448.532 202.303 448.745C207.596 455.803 212.778 471.442 216 480.033C212.047 478.489 208.119 476.893 204.042 475.713C200.472 480.745 197.201 485.991 193.834 491.164C192.238 493.618 190.271 496.108 188.927 498.689C188.209 500.067 187.839 501.6 187.555 503.12C187.406 503.921 187.315 504.424 187.003 505.189L185.987 504.497C181.211 499.886 174.417 492.181 172.646 485.632C170.501 477.698 177.58 468.794 181.338 462.203C178.771 459.011 175.116 456.407 172 453.769C181.306 452.459 190.427 450.393 199.67 448.753Z" fill="#E7B68A"/>
<path d="M230.974 416.566C232.777 416.337 234.588 416.238 236.406 416.268C250.706 416.436 252.088 431.417 260.075 439.493C260.171 439.591 260.271 439.683 260.369 439.778C262.073 436.826 264.108 434.02 266 431.187C265.106 436.928 263.512 456.414 259.351 459.406C257.978 460.393 256.346 460.697 254.693 460.723C246.724 460.847 234.099 457.413 225.544 456.236C227.477 454.302 235.401 447.813 235.728 445.656C231.876 438.196 227.283 430.044 222.323 423.288C217.187 430.676 213.299 439.84 209.579 448.042C203.141 446.797 196.54 445.75 190 445.268C193.888 438.592 198.182 430.996 202.948 424.97C209.031 417.279 222 417.631 230.974 416.566Z" fill="#E7B68A"/>
</svg>
