<svg width="329" height="526" viewBox="0 0 329 526" fill="none" xmlns="http://www.w3.org/2000/svg">
<path d="M144.055 56.45C143.8 55.2631 143.797 54.6156 144.494 53.5849C147.507 49.1277 152.351 45.2532 156.101 41.4221C159.23 38.2263 162.184 34.8718 165.444 31.8047C175.569 22.2757 189.668 11.7436 202.512 6.21537C208.674 3.56325 215.531 1.73008 222.16 0.649343C233.746 -1.23936 245.699 0.939209 255.325 7.8795C270.399 18.7492 277.36 39.5804 280.14 57.2647C284.364 84.1367 282.591 111.536 281.304 138.57C280.893 147.233 280.058 155.685 280.205 164.382C276.918 162.482 273.476 160.806 270.157 158.948C264.511 155.787 258.907 152.373 252.962 149.798C249.644 151.497 246.985 152.848 244.357 155.557C238.66 156.561 232.888 156.568 227.247 158.029C224.679 158.695 221.931 159.457 219.515 160.569C216.284 162.056 213.229 163.985 209.856 165.149C203.035 167.503 193.943 168.652 186.737 170.21C184.874 166.959 182.346 163.318 181.376 159.688L181.995 158.62C182.133 157.066 180.535 154.41 179.875 152.956C175.557 143.441 170.684 134.096 163.912 126.057C161.583 123.293 154.248 116.715 153.105 114.425C153.136 114.025 153.087 113.12 153.233 112.788C153.451 112.292 160.767 111.888 162.467 110.189C164.572 108.082 169.073 86.0364 169.685 81.8849C170.07 79.2694 170.205 76.7827 170.105 74.1415C170.215 74.0653 170.323 73.9872 170.432 73.9127C171.975 72.8735 173.511 71.346 174.045 69.5092C173.928 68.6439 173.84 68.2039 173.207 67.5674C171.12 65.4682 167.528 65.5682 164.908 64.5583C163.273 63.9279 161.589 62.6598 160.07 61.7365C154.681 58.4601 150.388 56.6977 144.055 56.45Z" fill="#E7E9E3"/>
<path d="M145.763 58.3519L145.859 58.2782C194.679 21.0534 304.828 432.357 304.828 432.357C323.135 470.497 102.837 598.343 40.2872 470.497C-77.9144 228.905 96.8093 95.6787 145.763 58.3519Z" fill="#E7E9E3"/>
<path d="M144.055 56.45C150.388 56.6977 154.681 58.4601 160.071 61.7365C161.589 62.6598 163.273 63.9279 164.908 64.5583C167.528 65.5682 171.12 65.4681 173.207 67.5674C173.84 68.2038 173.929 68.6438 174.045 69.5092C173.511 71.346 171.975 72.8734 170.432 73.9127C170.323 73.9871 170.215 74.0652 170.105 74.1415C170.205 76.7826 170.07 79.2694 169.685 81.8849C169.073 86.0364 164.572 108.082 162.467 110.189C160.767 111.888 153.451 112.291 153.233 112.788C153.087 113.12 153.136 114.025 153.105 114.425C154.248 116.715 161.583 123.293 163.912 126.057C170.684 134.095 175.557 143.441 179.875 152.956C180.535 154.41 182.133 157.066 181.995 158.62L181.376 159.688C182.346 163.318 184.875 166.959 186.738 170.21C193.943 168.652 203.035 167.503 209.856 165.149C213.229 163.985 216.284 162.056 219.515 160.569C221.932 159.457 224.679 158.695 227.247 158.029C232.888 156.568 238.66 156.561 244.357 155.556C246.985 152.848 249.645 151.497 252.962 149.798C258.907 152.373 264.511 155.787 270.157 158.948C273.476 160.806 276.918 162.482 280.205 164.382C282.654 165.749 285.942 167.135 287.898 169.106C288.085 173.106 280.941 183.919 279.589 188.685C280.815 191.735 282.104 226.271 282.015 231.238L281.659 231.782L280.822 231.882C281.582 231.994 282.329 232.086 283.061 232.332C288.462 232.392 307.312 231.648 310.77 232.802C312.385 233.341 313.54 234.66 314.699 235.846C317.786 239.005 326.239 247.052 327.721 250.538C328.924 253.371 328.702 257.294 328.652 260.303C328.614 262.654 328.689 265.926 326.823 267.617C325.272 269.022 323.316 269.061 321.333 269.1L321.277 269.611C320.733 274.746 320.821 280.033 320.75 285.199C320.679 291.905 320.528 298.609 320.295 305.312L318.053 388.799L317.379 415.647C317.255 419.863 317.48 424.513 316.794 428.663C316.498 430.45 315.874 431.931 314.448 433.116C313.183 434.168 311.541 434.236 309.964 434.326C302.737 434.74 295.325 434.422 288.083 434.422L247.473 434.45L222.832 434.432C219.697 434.421 216.129 434.823 213.062 434.423C211.336 434.197 209.958 433.433 208.925 432.025C207.759 430.437 207.717 428.728 207.569 426.831C207.018 419.76 207.196 412.523 206.996 405.427L205.874 364.106C205.068 332.419 204.087 300.736 202.929 269.059C200.198 268.585 198.047 268.186 195.664 266.669C195.673 263.325 195.13 259.106 195.908 255.904C196.668 252.773 204.273 242.095 206.753 239.602C209.343 236.998 213.267 236.679 216.365 234.991C227.577 236.179 238.616 237.779 249.925 238.079C254.693 238.206 259.5 237.958 264.274 237.964L296.921 238.066C301.273 238.064 305.682 237.828 310.026 237.978C315.035 241.36 317.248 248.36 318.548 253.949L309.522 254.045C301.616 254.744 293.571 253.74 285.655 254.141C285.703 258.356 285.905 262.564 286.262 266.765C289.676 266.762 315.852 266.407 316.662 267.081L321.128 267.122C322.562 267.124 324.955 267.124 325.922 265.846C327.131 264.25 326.838 255.596 326.448 253.455C326.261 252.428 325.994 251.576 325.42 250.7C323.427 247.654 313.356 236.541 310.245 234.3C303.923 234.094 297.552 234.253 291.225 234.259L257.627 234.264C256.867 235.467 256.033 236.489 255.097 237.554C252.43 237.71 249.846 237.656 247.199 237.272C240.358 236.283 222.749 231.866 218.934 226.193C218.219 225.13 218.504 223.699 218.764 222.542C217.849 221.617 216.617 220.563 216.151 219.331C215.93 218.747 215.894 218.351 216.06 217.741C216.676 215.473 218.221 213.173 219.26 211.055C220.535 208.457 221.689 205.79 222.868 203.148C217.252 202.745 213.18 200.664 208.191 200.238C203.696 199.854 199.035 200.088 194.521 200.146C187.142 200.234 179.764 200.369 172.387 200.549C172.466 205.775 174.349 213.212 173.215 218.106C172.561 218.92 171.557 219.193 170.617 219.574C170.584 234.682 172.413 249.492 173.881 264.503C175.698 283.078 177.27 302.015 177.363 320.685C177.414 330.981 175.5 341.643 174.312 351.873C172.104 370.056 170.05 388.257 168.15 406.475C173.581 416.279 192.017 418.111 196.984 423.88C197.865 424.903 198.388 426.188 198.189 427.55C197.964 429.083 196.836 430.511 195.623 431.413C188.117 437 169.807 432.487 160.753 431.654C156.907 431.3 152.858 431.692 149.07 430.992C147.131 430.633 145.172 429.811 144.081 428.066C141.724 424.296 145.465 414.566 146.404 410.478C146.757 408.936 147.111 407.182 146.235 405.765C145.99 405.632 145.748 405.494 145.508 405.352C143.801 404.322 144.008 402.735 143.851 400.929C142.303 382.608 141.334 364.257 140.945 345.875C140.883 341.84 141.04 337.813 141.414 333.794C141.611 331.443 142.157 328.871 141.967 326.528C141.663 322.796 140.565 319.024 139.731 315.38L135.489 297.195C134.98 301.254 133.94 305.337 133.119 309.346C131.76 315.984 130.54 322.803 128.462 329.262C127.119 333.439 125.201 337.5 123.514 341.551C120.454 348.842 117.447 356.155 114.493 363.49L101.762 395.178C99.9787 399.592 98.3908 405.17 95.8473 409.158C98.9596 411.608 102.059 414.092 105.271 416.41C109.552 419.501 117.85 423.613 120.38 428.047C121.11 429.326 121.315 430.744 120.835 432.15C120.122 434.239 118.466 435.841 116.499 436.769C110.191 439.745 101.435 438.018 95.1596 435.826C88.1705 433.385 72.1955 426.196 69.1397 419.342C66.9544 414.441 72.8971 406.369 74.7273 401.79L74.8533 401.467C74.1437 400.947 73.238 400.398 72.6934 399.704C70.8379 397.342 75.117 383.825 75.9543 380.363C79.3471 365.976 83.2214 351.72 87.5773 337.596C88.475 334.624 89.3434 331.64 90.3606 328.707C91.7703 324.644 93.9769 320.021 94.3895 315.776C94.9973 309.523 93.9483 302.628 93.8104 296.308L92.5307 253.642C92.1371 242.05 91.4762 230.513 92.5569 218.94C92.2009 218.571 91.8531 218.194 91.5134 217.81C90.0207 216.099 89.5881 214.688 89.7351 212.437C89.9603 208.994 90.9324 205.471 91.6232 202.086C92.6842 196.998 93.6165 191.888 94.42 186.753C95.1966 181.851 95.8144 176.929 96.2733 171.987C96.7371 166.487 96.9293 160.904 97.708 155.439C99.2842 144.379 103.13 130.892 110.034 122.062C113.033 118.225 116.646 114.606 120.715 111.902C122.864 110.474 128.03 108.423 129.469 106.638C131.232 104.449 130.932 95.5928 130.936 92.4616C130.333 91.5597 129.813 90.6211 129.325 89.6539C126.897 84.8464 123.959 76.361 125.858 71.0427C126.695 68.7 128.624 68.2997 130.655 67.2726C131.069 66.1833 130.798 64.532 130.758 63.3634C131.143 62.6067 131.555 61.9098 132.109 61.2611C134.969 57.9078 139.879 56.8783 144.055 56.45Z" fill="black"/>
<path d="M309.404 240.199C309.505 240.252 309.611 240.298 309.708 240.358C312.766 242.248 315.012 248.703 315.981 251.953L310.654 251.972C310.528 247.988 310.586 244.042 309.404 240.199Z" fill="#F5F4EF"/>
<path d="M225.131 203.06C225.795 203.099 226.428 203.215 227.082 203.331C226.221 206.717 221.909 216.846 220.082 219.626C219.112 219.17 218.457 218.925 217.99 217.945C220.611 213.068 222.902 208.125 225.131 203.06Z" fill="#F5F4EF"/>
<path d="M216.485 239.943C217.43 242.639 216.706 248.742 216.623 251.755C214.449 251.707 212.277 251.825 210.106 251.915C209.96 250.48 215.439 241.752 216.485 239.943Z" fill="#F5F4EF"/>
<path d="M250.142 153.411L250.286 153.539C250.244 154.851 236.646 183.352 235.176 185.734C234.812 185.325 234.534 184.935 234.231 184.481C234.204 183.834 234.247 183.326 234.393 182.69C235.078 179.722 236.47 176.767 237.613 173.943C240.167 167.633 243.979 157.058 250.142 153.411Z" fill="#F5F4EF"/>
<path d="M77.1023 402.401C82.5182 405.258 88.6359 406.075 94.2379 408.403C93.4031 409.868 92.4328 410.987 91.1788 412.108C89.9778 412.865 88.8202 413.307 87.488 413.768C82.1618 412.453 79.0075 409.165 75.8292 404.942L77.1023 402.401Z" fill="#F5F4EF"/>
<path d="M149 406.294C154.597 406.306 160.125 406.691 165.734 406.521C166.438 408.433 167.22 409.369 168.738 410.712C167.936 411.647 167.028 412.476 166.136 413.325C164.34 414.569 162.627 415.524 160.399 415.692C156.376 415.994 152.12 413.641 149.161 411.061C148.967 409.474 148.998 407.89 149 406.294Z" fill="#E7E9E3"/>
<path d="M234.886 172.681L235.586 172.761C235.612 174.646 232.682 180.892 232.03 183.471C223.953 181.644 220.074 183.849 212.531 184.178C210.739 184.256 208.911 184.027 207.129 183.861C206.434 183.858 205.825 183.683 205.155 183.517C206.257 182.562 208.188 181.926 209.528 181.3C217.799 177.438 225.935 174.562 234.886 172.681Z" fill="#F5F4EF"/>
<path d="M163.842 129.253C170.572 136.369 175.875 148.891 179.784 157.959L176.376 160.208C174.35 161.351 172.331 162.341 170.184 163.237C169.761 155.712 169.04 148.211 167.229 140.875C166.287 137.061 164.699 133.389 163.901 129.55C163.88 129.451 163.861 129.351 163.842 129.253Z" fill="#E7E9E3"/>
<path d="M258.432 232.365C260.486 227.405 262.972 222.588 265.301 217.749L279.589 188.685C280.815 191.735 282.104 226.271 282.015 231.238L281.659 231.782L280.822 231.882C281.582 231.994 282.329 232.086 283.061 232.332L258.432 232.365Z" fill="#E7E9E3"/>
<path d="M170.363 412.159C173.634 414.312 177.005 416.363 180.538 418.062C184.648 420.038 191.656 421.785 194.845 424.815C195.603 425.535 196.207 426.374 196.159 427.466C196.125 428.253 195.559 428.897 194.956 429.35C188.782 433.984 174.859 431.59 167.779 430.547C164.688 430.077 161.583 429.631 158.458 429.462C155.549 429.305 152.465 429.429 149.591 428.987C148.345 428.795 147.15 428.321 146.427 427.235C144.404 424.197 147.127 416.158 147.869 412.756C151.241 415.129 155.276 417.826 159.547 417.855C163.986 417.886 167.426 415.172 170.363 412.159Z" fill="#E7E9E3"/>
<path d="M142.538 58.598C142.566 58.5943 142.594 58.5894 142.622 58.5876C152.804 57.8626 156.1 62.7141 164.435 66.7374C166.512 67.7394 169.016 66.771 170.899 68.4058C171.261 69.1381 171.336 69.4536 171.223 70.2652C169.449 72.816 163.65 71.7109 160.815 72.0093C147.429 73.4177 148.991 82.6202 142.409 86.6545C140.255 85.9357 139.961 82.8643 137.335 82.2358C136.43 82.3645 135.89 82.6354 135.274 83.3018C132.513 86.2902 135.161 90.3758 135.437 93.6095L134.805 93.7614C134.413 93.5741 134.39 93.5857 133.998 93.2714C130.156 90.1933 127.306 78.3094 127.18 73.519C127.04 68.2075 130.99 70.8925 133.513 68.1959C133.853 67.0126 133.178 66.021 132.953 64.8267C132.747 63.7362 132.916 62.8532 133.613 61.9696C135.318 59.8099 139.935 59.0093 142.538 58.598Z" fill="#F5F4EF"/>
<path d="M74.4547 406.872C75.3444 407.837 76.2151 408.822 77.1299 409.763C79.7666 412.474 83.3902 415.673 87.3904 415.615C90.5978 415.569 92.885 413.481 94.9836 411.316C98.9716 414.243 102.914 417.265 106.985 420.074C109.993 422.15 113.25 424.036 116.06 426.368C117.38 427.463 118.82 428.759 118.902 430.6C118.961 431.915 118.327 432.816 117.47 433.733C116.774 434.164 116.071 434.585 115.311 434.9C107.278 438.228 97.2763 434.795 89.8375 431.497C85.1178 429.406 72.7856 423.525 70.9776 418.292C69.8781 415.11 73.1079 409.776 74.4547 406.872Z" fill="#E7E9E3"/>
<path d="M242.62 157.897L242.685 158.276C240.03 160.086 231.981 158.628 228.38 161.074L228.303 161.765C228.811 162.204 228.848 162.211 229.496 162.208C231.021 162.202 232.678 161.708 234.196 161.49C236.247 161.195 238.344 161.141 240.413 161.075C236.409 162.66 231.592 162.082 227.481 163.147C226.95 163.661 226.862 163.751 226.669 164.459C228.332 166.476 235.382 165.804 237.987 166.31L237.984 166.645C236.178 167.522 232.94 166.734 230.755 167.185C229.89 167.364 228.801 167.613 228.301 168.401L228.487 168.881C229.838 169.697 236.617 168.916 238.643 168.949C233.957 171.663 227.777 171.847 222.632 173.597C218.93 174.856 215.239 176.386 211.681 178.006C208.205 179.587 204.428 182.076 200.67 182.725C197.574 183.259 193.578 182.219 190.48 181.746C183.741 180.786 176.991 179.383 170.31 178.071C169.817 173.741 170.042 169.551 170.297 165.218C173.623 164.003 176.546 162.541 179.568 160.69L184.76 171.129C183.417 171.694 181.134 172.418 180.536 173.825L180.765 174.238C182.955 174.932 187.322 172.32 189.695 171.732C196.902 169.948 204.618 169.248 211.616 166.749C216.747 164.917 220.681 161.96 226.279 160.391C228.94 159.64 231.638 159.056 234.372 158.639C237.106 158.221 239.855 157.974 242.62 157.897Z" fill="#E7E9E3"/>
<path d="M160.899 73.7961C163.4 73.6418 165.832 73.8913 168.317 74.1629C168.254 78.2064 167.787 82.0161 166.992 85.979C165.741 85.7435 164.691 85.4439 163.498 86.0663L163.453 86.6399C164.189 87.5675 165.21 87.8842 166.273 88.3334C165.553 91.1307 164.654 93.8896 163.812 96.6522L163.958 94.816C164.116 92.9981 164.161 91.7892 163.162 90.208L162.682 90.2501C161.623 92.7485 163.545 95.3005 161.922 97.6951C161.08 98.3481 160.301 98.3676 159.259 98.4872C158.605 98.5623 158.931 98.4323 158.356 98.9058L158.457 99.7028C159.797 100.795 161.758 100.315 163.383 100.184L163.489 100.899C162.701 102.297 160.232 103.104 158.769 103.7C158.015 103.411 157.103 102.96 156.291 102.944C155.645 102.931 155.605 102.991 155.174 103.478C155.211 103.587 155.235 103.701 155.285 103.805C155.677 104.615 156.611 105.091 157.432 105.36C158.658 105.759 159.182 105.655 160.324 105.068C161.009 104.716 161.327 104.454 162.119 104.604C162.347 105.691 161.851 106.782 161.345 107.755C160.7 108.996 159.784 109.583 158.449 109.954C152.504 111.609 145.783 107.524 142.365 102.79C141.396 101.447 140.688 98.7673 139.229 97.9874L138.738 98.3932C138.452 100.57 140.373 103.539 141.621 105.248C144.411 108.34 147.635 110.302 151.459 111.873C151.394 112.155 151.332 112.436 151.282 112.719C151.26 112.847 151.24 112.974 151.217 113.101C150.803 115.406 151.931 117.178 152.051 119.402C152.091 120.139 151.985 120.759 151.39 121.265C150.707 121.846 149.772 121.932 148.917 121.886C142.409 121.529 132.712 115.257 128.434 110.502C128.944 110.145 129.466 109.783 129.926 109.364C133.148 106.419 132.718 99.4007 132.817 95.3536C133.55 95.7167 134.169 95.9998 134.978 96.1341C135.091 96.153 135.204 96.1683 135.316 96.1866C136.268 96.3385 136.855 96.4899 137.762 96.0328C139.105 93.2183 134.904 89.1822 136 86.0572C136.278 85.2657 136.487 85.1345 137.156 84.7158C138.813 85.3902 139.265 87.4693 140.798 88.3035C145.02 90.5998 149.687 80.0341 152.142 77.803C154.563 75.6037 157.772 74.5321 160.899 73.7961Z" fill="#F5F4EF"/>
<path d="M155.907 88.6921C156.657 89.0925 157.284 89.5471 157.649 90.3319C157.54 91.4126 157.244 91.6097 156.574 92.4348C156.501 92.4085 156.423 92.392 156.355 92.3554C155.652 91.9813 155.447 91.6103 155.165 90.8945C155.229 89.779 155.335 89.5922 155.907 88.6921Z" fill="black"/>
<path d="M154.52 85.4042C155.916 85.2821 158.382 85.0521 159.496 86.0498C159.847 86.3641 159.712 86.563 159.693 86.9871C159.145 87.6297 159.175 87.8921 158.301 87.994C156.63 87.2111 155.934 87.8452 154.327 87.562C153.557 87.4259 153.404 87.2862 153.046 86.6686C153.443 85.9693 153.853 85.8045 154.52 85.4042Z" fill="black"/>
<path d="M220.132 240.208C227.593 239.99 304.754 239.606 306.24 240.382C307.36 240.967 308.009 242.25 308.231 243.45C308.576 245.318 309.193 250.302 308.162 251.831L307.054 251.943L260.561 251.778C246.648 251.909 232.735 251.931 218.821 251.846C218.922 249.179 218.167 242.497 219.176 240.409L220.132 240.208Z" fill="#E7E9E3"/>
<path d="M257.296 246.004C260.077 245.911 273.495 245.534 275.184 246.652C275.799 247.059 276.176 247.682 276.219 248.426C276.244 248.85 276.147 249.458 275.807 249.746C274.574 250.79 271.747 250.416 270.206 250.4C265.175 250.438 259.607 250.981 254.644 250.488C253.179 250.343 252.142 250.082 251.187 248.929C250.994 248.047 251.01 247.89 251.282 247.028C252.894 245.6 255.274 245.998 257.296 246.004Z" fill="black"/>
<path d="M253.427 247.802C256.071 247.744 272.463 247.249 273.668 248.144L273.356 248.595C270.236 248.713 255.235 249.781 253.412 248.467L253.427 247.802Z" fill="#F5F4EF"/>
<path d="M197.752 256.282C200.438 251.902 205.466 242.608 209.8 239.92C211.521 238.852 213.834 238.327 215.703 237.434C213.275 241.042 211.005 245.024 208.919 248.844C208.29 249.995 206.916 252.14 207.3 253.438C210.549 254.582 220.879 253.856 225.027 253.845C245.104 253.691 265.18 253.67 285.257 253.781L300.151 253.753C303.188 253.748 306.533 253.507 309.522 254.045C301.616 254.744 293.571 253.74 285.655 254.141C285.703 258.356 285.905 262.564 286.262 266.765C289.676 266.762 315.852 266.407 316.662 267.081C307.874 267.365 298.986 267.083 290.188 267.081L241.003 267.1L215.531 266.963C209.998 266.923 204.1 267.329 198.659 266.262C197.082 264.558 197.725 258.681 197.752 256.282Z" fill="#E7E9E3"/>
<path d="M126.33 110.99C129.224 115.049 133.682 117.892 138.053 120.148C141.633 121.997 147.462 124.847 151.526 123.374C153.354 122.711 153.894 121.438 154.619 119.746C156.39 121.18 157.901 122.531 159.133 124.479C165.883 135.162 170.037 161.652 167.195 174.013L168.603 177.921C165.802 177.577 163.006 177.164 160.21 176.781C159.46 176.65 158.583 176.546 157.89 176.223C154.968 174.86 148.13 163.823 146.824 160.729L147.651 159.379C146.514 155.424 144.366 151.431 142.769 147.613C140.044 141.093 137.663 134.326 134.312 128.092C132.103 123.981 128.869 119.754 124.167 118.449C120.182 117.344 116.999 118.654 113.598 120.601C117.554 116.742 121.344 113.473 126.33 110.99Z" fill="#E7E9E3"/>
<path d="M119.341 120.171C121.311 120.047 123.28 120.1 125.12 120.893C127.571 121.95 129.328 124.004 130.792 126.167C133.979 130.872 135.99 136.463 138.163 141.692L145.282 158.905C139.427 162.986 133.528 166.795 127.394 170.443C124.131 172.423 120.848 174.366 117.542 176.273C113.613 169.963 110.826 161.366 108.959 154.173C106.951 146.439 104.408 135.047 108.913 127.698C111.262 123.866 115.019 121.244 119.341 120.171Z" fill="#E7E9E3"/>
<path d="M144.634 161.891C145.845 162.958 146.798 164.834 147.702 166.191C150.419 170.266 153.068 174.71 156.603 178.123C162.636 179.362 168.791 179.986 174.858 181.05C187.262 183.224 199.924 185.872 212.542 186.33C217.175 186.498 221.541 184.596 226.285 184.824C230.806 185.041 239.979 189.733 242.996 193.074C239.586 192.099 235.083 189.722 231.606 189.753C230.929 189.758 230.392 189.884 229.924 190.374C230.271 190.925 230.418 191.079 230.997 191.359C232.013 191.851 233.324 191.96 234.413 192.294C236.574 192.96 238.808 193.761 240.859 194.704C237.661 195.784 234.059 193.775 231.117 192.82C230.278 192.548 229.636 192.405 228.807 192.789C228.506 193.451 228.46 193.415 228.699 194.093C230.845 195.764 235.715 196.44 238.47 197.175C238.508 197.338 238.418 197.507 238.38 197.671C234.966 198.332 231.365 195.716 227.643 196.423L227.538 196.781C229.869 198.87 233.104 199.168 236.082 199.346C231.455 200.693 226.391 201.18 221.577 201.056C218.061 200.965 215.169 199.396 211.834 198.601C210.038 198.173 208.128 198.142 206.291 198.077C191.657 197.56 176.966 198.689 162.316 198.049C158.071 197.863 153.626 197.749 149.434 197.032C147.693 196.735 145.982 196.271 144.447 195.371C137.521 191.308 130.359 180.561 125.653 173.955C131.916 169.836 138.378 166.035 144.634 161.891Z" fill="#E7E9E3"/>
<path d="M253.497 152.326C258.531 154.271 263.336 157.448 268.067 160.067C273.969 163.336 279.975 166.343 285.708 169.912C284.435 173.941 256.025 233.894 254.427 235.127C252.66 236.49 248.592 235.562 246.581 235.291C237.406 233.284 227.648 231.004 220.253 224.877C222.567 217.284 226.973 210.228 229.584 202.661C229.856 202.636 230.128 202.613 230.398 202.578C235.44 201.926 240.259 200.148 243.353 195.866C244.181 194.719 244.67 193.368 244.335 191.95C243.731 189.383 239.614 187.598 237.478 186.352C238.985 181.846 241.387 177.405 243.412 173.103C246.685 166.151 249.922 159.128 253.497 152.326Z" fill="#E7E9E3"/>
<path d="M104.377 137.424C105.1 139.96 104.524 143.231 105.018 145.948C107.035 157.036 110.779 169.128 116.373 178.928C119.044 177.866 121.515 176.363 124.01 174.946C127.916 180.976 132.61 187.105 137.598 192.275C139.632 194.383 141.857 196.474 144.534 197.738C150.583 200.591 163.24 200.27 170.063 200.395C170.89 205.824 171.557 211.641 171.25 217.127C167.68 218.388 163.693 218.913 159.98 219.638C143.496 222.238 115.274 223.976 99.3245 219.417C96.7315 218.676 93.3837 217.542 92.0876 214.974C90.9428 212.706 94.6238 197.553 95.2194 194.365C96.5082 187.274 97.4952 180.141 98.1803 172.966C98.7966 166.159 99.0804 159.212 100.269 152.477C101.179 147.321 102.645 142.354 104.377 137.424Z" fill="#E7E9E3"/>
<path d="M286.418 269.007C297.282 269.004 308.182 268.815 319.041 269.075C318.558 302.917 317.712 336.75 316.506 370.574L315.557 406.168C315.398 413.182 315.585 420.425 314.933 427.394C314.802 428.795 314.715 430.132 313.613 431.152C311.741 432.883 308.203 432.335 305.843 432.273C305.644 432.06 305.349 431.906 305.246 431.634C305.035 431.077 305.689 426.398 305.754 425.452C306.753 410.874 302.396 395.41 297.705 381.738C296.738 378.915 295.923 375.735 294.416 373.152C297.198 370.147 300.153 365.063 301.588 361.258C302.337 359.269 302.858 357.17 302.504 355.038C301.613 349.669 294.216 340.533 291.741 334.787C291.697 334.684 291.655 334.581 291.612 334.478C292.124 331.012 291.216 326.973 290.98 323.457C290.158 311.211 288.661 299.033 287.546 286.806C287.015 280.973 286.159 274.86 286.418 269.007Z" fill="#F5F4EF"/>
<path d="M94.7482 219.899C113.917 227.097 148.407 224.281 168.568 219.978C168.643 224.912 168.587 229.902 168.919 234.825C169.487 243.252 170.611 251.667 171.395 260.078C173.275 280.244 175.246 300.687 175.317 320.946C175.353 331.151 173.252 342.561 172.033 352.789L166.176 404.305C159.428 404.921 152.814 404.404 146.086 403.852C145.284 396.086 144.922 388.215 144.449 380.42C143.772 369.255 143.094 358.019 143.04 346.834C143 342.907 143.141 338.986 143.464 335.072C143.694 332.235 144.273 329.195 144.074 326.367C143.847 323.135 142.881 319.905 142.152 316.75L138.591 301.413C137.898 298.441 136.837 295.175 137.014 292.112C137.271 287.643 138.87 282.836 139.915 278.466C141.968 269.747 144.114 261.051 146.353 252.377C147.044 248.946 150.349 240.493 149.348 237.541L148.868 237.405C146.945 239.262 145.574 247.385 144.809 250.313C141.115 264.224 137.708 278.204 134.589 292.255C132.162 303.471 130.251 314.965 127.184 326.016C124.799 334.607 120.615 342.786 117.311 351.058C109.993 369.488 102.529 387.859 94.9172 406.171C87.4906 404.569 80.6577 401.859 73.8641 398.512C74.6948 391.383 77.0708 383.979 78.8599 377.015C82.4634 362.984 86.1706 349.099 90.4197 335.245C91.8343 330.634 95.9717 320.909 96.4007 316.799C97.0543 310.538 96.1194 302.026 95.8954 295.542L94.653 256.572C94.2118 244.5 93.1628 231.909 94.7482 219.899Z" fill="#E7E9E3"/>
<path d="M205.145 269.056L286.418 269.007C286.159 274.86 287.014 280.973 287.546 286.806C288.661 299.033 290.158 311.211 290.98 323.457C291.216 326.973 292.124 331.012 291.612 334.478C291.655 334.581 291.697 334.684 291.741 334.787C294.216 340.533 301.613 349.669 302.504 355.038C302.858 357.17 302.337 359.268 301.588 361.258C300.153 365.063 297.198 370.147 294.415 373.152C295.923 375.735 296.737 378.915 297.705 381.738C302.396 395.41 306.753 410.874 305.754 425.452C305.689 426.398 305.035 431.077 305.245 431.634C305.349 431.906 305.644 432.059 305.843 432.272C285.017 432.094 264.164 432.301 243.338 432.381C233.965 432.417 224.301 432.974 214.956 432.475C213.82 432.414 212.078 432.436 211.22 431.638C210.116 430.611 209.736 429.155 209.642 427.691C209.331 422.823 209.412 417.833 209.27 412.949L208.251 373.579L205.145 269.056Z" fill="#E7E9E3"/>
<path d="M252.634 299.921C257.939 299.858 263.79 300.412 269.089 300.95C271.751 302.594 276.961 314.3 279.237 317.738L279.546 318.198C281.882 317.177 284.726 315.545 287.278 315.503C288.017 315.864 288.261 316.082 288.671 316.794C288.265 321.251 284.028 332.586 282.61 337.751C276.352 335.888 270.289 333.415 263.983 331.587C262.32 331.105 260.75 330.938 259.858 329.323C261.887 327.475 264.592 326.294 266.742 324.518C264.554 320.308 262.458 315.992 259.94 311.969C256.878 317.048 254.49 325.011 250.081 328.819C247.129 327.699 244.069 326.915 241.045 326.016C239.58 325.581 236.223 324.876 235.473 323.495C235.529 323.171 235.533 323.036 235.703 322.708C236.594 320.991 238.233 319.22 239.315 317.555C242.392 312.817 245.581 306.335 249.235 302.249C250.277 301.083 251.188 300.506 252.634 299.921Z" fill="black"/>
<path d="M251.299 302.769C251.492 302.819 251.686 302.864 251.878 302.917C255.052 303.797 257.213 306.644 258.696 309.41C256.162 315.26 252.955 321.142 249.424 326.451L246.634 325.489C243.945 324.589 241.188 323.851 238.467 323.05C241.331 317.457 247.525 307.745 251.299 302.769Z" fill="#E7E9E3"/>
<path d="M255.722 302.077C259.951 302.313 264.178 302.643 268.403 302.927C271.999 308.797 274.742 315.089 278.896 320.62C281.451 319.746 283.942 318.598 286.482 317.658C284.6 323 283.057 328.504 281.5 333.949L281.245 334.548C279.892 334.966 265.856 329.912 263.41 329.143C265.031 328.31 266.992 327.479 268.378 326.285C268.702 326.005 269.162 325.583 269.157 325.133C269.133 322.856 260.891 308.967 259.26 306.518C258.207 304.937 256.974 303.502 255.722 302.077Z" fill="#E7E9E3"/>
<path d="M229.93 341.581C228.386 340.817 226.462 340.066 225.1 339.019C224.459 338.527 224.233 338.202 224.126 337.416C224.336 337.071 224.51 336.874 224.886 336.705C231.972 333.535 239.357 330.816 246.503 327.726C247.19 328.801 247.743 329.942 248.162 331.148C249.087 333.802 252.824 348.551 252.778 350.923L252.371 351.199C249.634 351.259 246.472 349.25 244.035 348.07C241.014 352.362 238.34 357.011 235.659 361.528C240.587 361.523 250.312 360.692 254.67 361.619C255.819 362.898 255.426 365.21 255.39 366.844C258.273 364.661 270.368 353.055 272.861 352.888C273.316 352.857 273.368 353.09 273.648 353.388C273.856 355.489 273.36 357.823 273.099 359.924C278.792 359.76 284.487 359.664 290.182 359.637C287.688 357.004 278.19 344.736 278.027 341.657C279.626 339.654 288.76 335.932 291.612 334.478C291.655 334.581 291.697 334.684 291.741 334.787C294.216 340.533 301.613 349.669 302.504 355.038C302.858 357.17 302.337 359.268 301.588 361.258C300.153 365.063 297.198 370.147 294.415 373.152C293.623 373.858 292.876 374.452 291.859 374.804C287.495 376.317 278.599 375.538 273.725 375.586C273.793 378.366 273.805 381.146 273.763 383.926C271.599 382.455 269.646 380.53 267.625 378.86L255.354 368.852C255.109 371.484 255.45 374.155 254.977 376.768C254.717 376.984 254.715 377.015 254.346 377.157C253.176 377.603 238.006 376.958 235.935 376.648C234.567 376.443 233.259 376.048 232.056 375.353C229.004 373.59 223.302 364.752 221.732 361.448C221.216 360.364 220.943 359.125 220.654 357.964C222.482 352.215 226.808 346.746 229.93 341.581Z" fill="black"/>
<path d="M290.359 337.386C290.441 337.479 290.531 337.565 290.605 337.664C292.632 340.337 300.977 353.898 300.637 356.532C300.109 357.519 299.559 358.118 298.525 358.598C296.319 359.621 294.562 359.592 292.346 358.719C288.682 355.589 282.644 346.889 280.668 342.406L290.359 337.386Z" fill="#E7E9E3"/>
<path d="M244.418 363.485C247.406 363.391 250.395 363.351 253.385 363.365C253.12 367.291 253.054 371.232 252.942 375.165L238.86 374.661C237.791 374.633 236.696 374.63 235.637 374.484C232.904 374.108 231.587 372.69 230.063 370.576C231.261 368.275 232.802 366.069 234.17 363.86C237.566 363.555 241.01 363.569 244.418 363.485Z" fill="#E7E9E3"/>
<path d="M271.481 355.94C271.713 357.814 271.326 360.109 271.289 362.037C274.939 362.167 278.723 361.868 282.386 361.816C288.076 361.737 293.816 361.861 299.493 361.453C297.844 364.528 296.057 368.441 293.613 370.936C290.387 374.229 284.987 373.434 280.777 373.403C277.778 373.403 274.781 373.574 271.786 373.712C271.597 375.704 271.668 377.753 271.657 379.754C267.272 375.526 262.206 371.956 257.632 367.916C262.181 363.862 266.648 359.655 271.481 355.94Z" fill="#E7E9E3"/>
<path d="M245.049 330.651L245.479 330.707C247.074 332.09 249.708 345.637 250.285 348.477C247.865 347.491 245.699 346.435 243.598 344.869C241.828 347.039 240.488 349.686 239.035 352.08C235.788 357.43 232.622 362.976 229.052 368.112L228.747 368.145L228.082 367.429C226.422 365.171 223.777 362.179 223.185 359.419C222.391 355.718 230.731 344.224 232.869 340.588C230.993 339.77 229.145 338.946 227.34 337.979C233.284 335.648 239.127 333.042 245.049 330.651Z" fill="#E7E9E3"/>
</svg>
