<?xml version="1.0" encoding="UTF-8" standalone="no"?>
<!DOCTYPE svg PUBLIC "-//W3C//DTD SVG 1.1//EN" "http://www.w3.org/Graphics/SVG/1.1/DTD/svg11.dtd">
<svg width="100%" height="100%" viewBox="0 0 2000 2000" version="1.1" xmlns="http://www.w3.org/2000/svg" xmlns:xlink="http://www.w3.org/1999/xlink" xml:space="preserve" xmlns:serif="http://www.serif.com/" style="fill-rule:evenodd;clip-rule:evenodd;stroke-linejoin:round;stroke-miterlimit:2;">
    <g id="Artboard1" transform="matrix(1,0,0,1,-4096,4.56524e-13)">
        <rect x="4096" y="-0" width="2000" height="2000" style="fill:none;"/>
        <g transform="matrix(3.82993,0,0,3.82993,-2250.91,-2814.28)">
            <path d="M2022.24,886.81C2020.37,886.81 2018.65,885.812 2017.71,884.192C2016.78,882.573 2016.79,880.579 2017.73,878.964C2019.88,875.258 2022.44,870.845 2024.6,867.138C2025.54,865.523 2025.54,863.529 2024.61,861.91C2023.68,860.29 2021.95,859.292 2020.08,859.292C1990.13,859.292 1895.29,859.292 1877.14,859.292C1875.28,859.292 1873.56,858.297 1872.62,856.681C1866.2,845.551 1840.95,801.819 1830.54,783.792C1829.61,782.176 1829.61,780.185 1830.54,778.57C1831.47,776.954 1833.2,775.959 1835.06,775.959C1883.92,775.959 2115.97,775.959 2164.91,775.959C2166.78,775.959 2168.5,776.957 2169.43,778.576C2170.37,780.196 2170.36,782.19 2169.42,783.805C2156.33,806.337 2119.03,870.502 2111.06,884.212C2110.13,885.82 2108.41,886.81 2106.55,886.81L2022.24,886.81Z" style="fill:rgb(134,200,54);"/>
            <path d="M2084.37,914.523C2086.24,914.523 2087.96,915.521 2088.89,917.14C2089.83,918.76 2089.82,920.754 2088.88,922.369C2064.25,964.745 1947.32,1165.92 1922.81,1208.1C1921.87,1209.71 1920.15,1210.7 1918.29,1210.7C1916.43,1210.7 1914.71,1209.71 1913.78,1208.1C1895.89,1177.33 1830.1,1064.13 1812.13,1033.22C1811.19,1031.61 1811.19,1029.61 1812.12,1027.99C1813.05,1026.37 1814.78,1025.37 1816.64,1025.37L1900.95,1025.37C1902.81,1025.37 1904.53,1026.36 1905.47,1027.97C1907.42,1031.34 1910.93,1037.37 1913.78,1042.27C1914.71,1043.88 1916.43,1044.87 1918.29,1044.87C1920.15,1044.87 1921.87,1043.88 1922.81,1042.27C1937.93,1016.25 1986.37,932.917 1995.55,917.121C1996.48,915.512 1998.2,914.523 2000.06,914.523L2084.37,914.523Z" style="fill:rgb(19,98,63);"/>
            <path d="M1835.59,851.459C1836.52,853.075 1836.52,855.065 1835.59,856.681C1834.66,858.297 1832.93,859.292 1831.07,859.292C1826.53,859.292 1821.04,859.292 1816.5,859.292C1814.63,859.292 1812.9,860.29 1811.97,861.91C1811.04,863.529 1811.05,865.523 1811.99,867.138C1825.99,891.232 1868.27,963.974 1882.27,988.068C1883.21,989.683 1883.22,991.677 1882.28,993.296C1881.35,994.916 1879.63,995.914 1877.76,995.914L1793.45,995.914C1791.59,995.914 1789.87,994.924 1788.94,993.316C1776.32,971.601 1688.31,820.185 1667.16,783.805C1666.22,782.19 1666.22,780.196 1667.15,778.576C1668.08,776.957 1669.81,775.959 1671.68,775.959L1788.99,775.959C1790.85,775.959 1792.58,776.954 1793.51,778.57C1799.93,789.7 1825.18,833.432 1835.59,851.459Z" style="fill:rgb(140,146,150);"/>
        </g>
    </g>
</svg>
