<?xml version="1.0" encoding="UTF-8" standalone="no"?>
<!DOCTYPE svg PUBLIC "-//W3C//DTD SVG 1.1//EN" "http://www.w3.org/Graphics/SVG/1.1/DTD/svg11.dtd">
<svg width="100%" height="100%" viewBox="0 0 4000 2000" version="1.1" xmlns="http://www.w3.org/2000/svg" xmlns:xlink="http://www.w3.org/1999/xlink" xml:space="preserve" xmlns:serif="http://www.serif.com/" style="fill-rule:evenodd;clip-rule:evenodd;stroke-linejoin:round;stroke-miterlimit:2;">
    <g transform="matrix(1.30907,0,0,1.30907,-705.249,-306.005)">
        <g transform="matrix(1.07104,0,0,1.07104,2.52461,384.092)">
            <path d="M612.4,373.547L773.8,373.547C796.8,373.547 817.3,378.347 835.3,387.947C853.3,397.547 867.5,411.447 877.9,429.647C888.5,447.647 893.8,469.147 893.8,494.147C893.8,519.147 889.3,539.647 880.3,555.647C871.5,571.447 860.9,583.347 848.5,591.347C836.1,599.147 824.6,603.847 814,605.447L910.3,769.547L809.5,769.547L723.7,612.347L702.1,612.347L702.1,769.547L612.4,769.547L612.4,373.547ZM702.1,550.247L741.7,550.247C757.7,550.247 771.7,546.347 783.7,538.547C795.7,530.747 801.7,516.947 801.7,497.147C801.7,477.347 795.8,463.647 784,456.047C772.2,448.247 758.3,444.347 742.3,444.347L702.1,444.347L702.1,550.247Z" style="fill-rule:nonzero;"/>
        </g>
        <g transform="matrix(1.07104,0,0,1.07104,-26.7588,384.092)">
            <path d="M969.1,373.547L1222,373.547L1222,452.147L1058.5,452.147L1058.5,532.847L1220.5,532.847L1220.5,609.047L1058.5,609.047L1058.5,690.947L1222,690.947L1222,769.547L969.1,769.547L969.1,373.547Z" style="fill-rule:nonzero;"/>
        </g>
        <g transform="matrix(1.07104,0,0,1.07104,-73.1404,384.092)">
            <path d="M2124.1,373.547L2209.72,373.547L2210.38,695.297L2352.62,695.297L2352.62,769.547L2124.1,769.547L2124.1,373.547Z" style="fill-rule:nonzero;"/>
        </g>
        <g transform="matrix(1.07104,0,0,1.07104,-107.014,384.092)">
            <path d="M2641.9,610.247L2505.1,610.247L2505.1,769.547L2415.7,769.547L2415.7,373.547L2505.1,373.547L2505.1,531.947L2641.9,531.947L2641.9,373.547L2731,373.547L2731,769.547L2641.9,769.547L2641.9,610.247Z" style="fill-rule:nonzero;"/>
        </g>
        <g transform="matrix(0.981322,0,0,0.981322,35.8307,22.7106)">
            <path d="M2026.69,886.81C2023.91,886.81 2021.34,885.322 2019.95,882.908C2018.56,880.494 2018.56,877.522 2019.96,875.114C2020.76,873.748 2021.57,872.354 2022.36,870.988C2023.76,868.58 2023.77,865.608 2022.38,863.194C2020.99,860.78 2018.42,859.292 2015.63,859.292C1982.58,859.292 1898.93,859.292 1878.62,859.292C1875.84,859.292 1873.27,857.808 1871.88,855.4C1864.96,843.402 1843.74,806.654 1832.76,787.635C1831.37,785.227 1831.37,782.259 1832.76,779.851C1834.15,777.442 1836.72,775.959 1839.5,775.959C1894.93,775.959 2104.94,775.959 2160.45,775.959C2163.24,775.959 2165.81,777.447 2167.2,779.861C2168.59,782.275 2168.58,785.247 2167.18,787.655C2152.95,812.141 2120.61,867.784 2111.8,882.937C2110.41,885.335 2107.85,886.81 2105.07,886.81C2091.22,886.81 2048.71,886.81 2026.69,886.81Z" style="fill:rgb(134,200,54);"/>
            <path d="M2079.92,914.523C2082.7,914.523 2085.27,916.011 2086.66,918.425C2088.05,920.839 2088.05,923.811 2086.65,926.219C2058.7,974.299 1952.84,1156.43 1925.02,1204.29C1923.63,1206.69 1921.07,1208.16 1918.29,1208.16C1915.52,1208.16 1912.95,1206.69 1911.56,1204.29C1891.82,1170.32 1834.2,1071.19 1814.37,1037.07C1812.97,1034.66 1812.96,1031.69 1814.35,1029.28C1815.74,1026.86 1818.31,1025.37 1821.1,1025.37C1843.11,1025.37 1885.63,1025.37 1899.48,1025.37C1902.25,1025.37 1904.81,1026.85 1906.21,1029.25C1907.66,1031.75 1909.63,1035.14 1911.56,1038.46C1912.95,1040.86 1915.52,1042.33 1918.29,1042.33C1921.07,1042.33 1923.63,1040.86 1925.02,1038.46C1941.73,1009.71 1984.52,936.1 1994.81,918.395C1996.2,915.998 1998.76,914.523 2001.54,914.523C2015.38,914.523 2057.9,914.523 2079.92,914.523Z" style="fill:rgb(19,98,63);"/>
            <path d="M1833.37,847.615C1834.76,850.024 1834.76,852.991 1833.37,855.4C1831.98,857.808 1829.41,859.292 1826.63,859.292C1824.76,859.292 1822.83,859.292 1820.95,859.292C1818.17,859.292 1815.6,860.78 1814.21,863.194C1812.82,865.608 1812.82,868.58 1814.22,870.988C1829.23,896.803 1865.03,958.403 1880.04,984.218C1881.43,986.626 1881.44,989.598 1880.05,992.012C1878.66,994.426 1876.09,995.914 1873.31,995.914L1794.93,995.914C1792.15,995.914 1789.59,994.439 1788.19,992.041C1773.71,967.115 1693.43,829 1669.4,787.655C1668,785.247 1667.99,782.275 1669.38,779.861C1670.77,777.447 1673.34,775.959 1676.13,775.959C1704.66,775.959 1769.83,775.959 1787.51,775.959C1790.29,775.959 1792.86,777.442 1794.25,779.851C1801.17,791.849 1822.39,828.597 1833.37,847.615Z" style="fill:rgb(140,146,150);"/>
        </g>
        <g transform="matrix(1.03018,0,0,1.03018,-177.52,-216.764)">
            <path d="M1668.56,1294.52C1686.96,1294.52 1703.66,1291.82 1718.66,1286.42C1733.86,1281.02 1745.16,1275.72 1752.56,1270.52L1790.96,1346.72C1781.56,1354.72 1765.46,1362.82 1742.66,1371.02C1720.06,1379.22 1693.16,1383.32 1661.96,1383.32C1632.76,1383.32 1605.36,1378.22 1579.76,1368.02C1554.16,1357.82 1531.56,1343.52 1511.96,1325.12C1492.56,1306.52 1477.26,1284.82 1466.06,1260.02C1455.06,1235.02 1449.56,1207.92 1449.56,1178.72C1449.56,1149.52 1455.06,1122.42 1466.06,1097.42C1477.06,1072.22 1492.26,1050.32 1511.66,1031.72C1531.26,1013.12 1553.86,998.723 1579.46,988.523C1605.26,978.123 1632.76,972.923 1661.96,972.923C1693.16,972.923 1720.06,977.023 1742.66,985.223C1765.46,993.423 1781.56,1001.52 1790.96,1009.52L1752.56,1085.72C1745.16,1080.32 1733.86,1075.02 1718.66,1069.82C1703.66,1064.42 1686.96,1061.72 1668.56,1061.72C1648.16,1061.72 1630.36,1064.92 1615.16,1071.32C1599.96,1077.52 1587.26,1086.12 1577.06,1097.12C1566.86,1108.12 1559.26,1120.52 1554.26,1134.32C1549.26,1148.12 1546.76,1162.62 1546.76,1177.82C1546.76,1193.22 1549.26,1207.92 1554.26,1221.92C1559.26,1235.72 1566.86,1248.12 1577.06,1259.12C1587.26,1270.12 1599.96,1278.82 1615.16,1285.22C1630.36,1291.42 1648.16,1294.52 1668.56,1294.52Z" style="fill-rule:nonzero;"/>
        </g>
        <g transform="matrix(1.06852,0,0,1.06852,-138.88,386.033)">
            <path d="M2798.8,373.547L3051.7,373.547L3051.7,452.147L2888.2,452.147L2888.2,532.847L3050.2,532.847L3050.2,609.047L2888.2,609.047L2888.2,690.947L3051.7,690.947L3051.7,769.547L2798.8,769.547L2798.8,373.547Z" style="fill-rule:nonzero;"/>
        </g>
        <g transform="matrix(1.07104,0,0,1.07104,-183.569,384.092)">
            <path d="M3117.7,373.547L3279.1,373.547C3302.1,373.547 3322.6,378.347 3340.6,387.947C3358.6,397.547 3372.8,411.447 3383.2,429.647C3393.8,447.647 3399.1,469.147 3399.1,494.147C3399.1,519.147 3394.6,539.647 3385.6,555.647C3376.8,571.447 3366.2,583.347 3353.8,591.347C3341.4,599.147 3329.9,603.847 3319.3,605.447L3415.6,769.547L3314.8,769.547L3229,612.347L3207.4,612.347L3207.4,769.547L3117.7,769.547L3117.7,373.547ZM3207.4,550.247L3247,550.247C3263,550.247 3277,546.347 3289,538.547C3301,530.747 3307,516.947 3307,497.147C3307,477.347 3301.1,463.647 3289.3,456.047C3277.5,448.247 3263.6,444.347 3247.6,444.347L3207.4,444.347L3207.4,550.247Z" style="fill-rule:nonzero;"/>
        </g>
    </g>
</svg>
