<svg width="807" height="807" viewBox="0 0 807 807" fill="none" xmlns="http://www.w3.org/2000/svg">
<g clip-path="url(#clip0_14_73)">
<path fill-rule="evenodd" clip-rule="evenodd" d="M564.145 234.894C561.255 234.894 558.597 233.351 557.144 230.848C555.707 228.346 555.722 225.264 557.175 222.769C560.498 217.041 564.454 210.222 567.792 204.493C569.244 201.997 569.244 198.916 567.807 196.414C566.37 193.91 563.696 192.368 560.807 192.368C514.523 192.368 367.959 192.368 339.911 192.368C337.036 192.368 334.378 190.83 332.925 188.333C323.004 171.133 283.983 103.55 267.896 75.692C266.459 73.1947 266.459 70.1178 267.896 67.6221C269.333 65.1247 272.007 63.587 274.881 63.587C350.388 63.587 708.993 63.587 784.623 63.587C787.513 63.587 790.171 65.1293 791.609 67.6313C793.061 70.1348 793.046 73.2163 791.593 75.7121C771.364 110.533 713.722 209.692 701.405 230.879C699.968 233.364 697.31 234.894 694.435 234.894H564.145Z" fill="white"/>
<path fill-rule="evenodd" clip-rule="evenodd" d="M660.159 277.721C663.049 277.721 665.707 279.263 667.144 281.765C668.596 284.268 668.581 287.35 667.128 289.846C629.066 355.333 448.365 666.224 410.488 731.408C409.035 733.896 406.377 735.426 403.503 735.426C400.628 735.426 397.97 733.896 396.533 731.408C368.886 683.856 267.216 508.92 239.445 461.152C237.993 458.664 237.993 455.573 239.43 453.07C240.867 450.566 243.541 449.021 246.415 449.021H376.706C379.58 449.021 382.238 450.551 383.691 453.039C386.704 458.247 392.129 467.566 396.533 475.138C397.97 477.626 400.628 479.156 403.503 479.156C406.377 479.156 409.035 477.626 410.488 475.138C433.854 434.927 508.712 306.146 522.898 281.736C524.336 279.249 526.994 277.721 529.868 277.721H660.159Z" fill="white"/>
<path fill-rule="evenodd" clip-rule="evenodd" d="M275.7 180.263C277.137 182.76 277.137 185.836 275.7 188.333C274.263 190.83 271.589 192.368 268.715 192.368C261.699 192.368 253.215 192.368 246.199 192.368C243.309 192.368 240.635 193.91 239.198 196.414C237.761 198.916 237.776 201.997 239.229 204.493C260.864 241.727 326.203 354.141 347.838 391.375C349.291 393.871 349.306 396.953 347.854 399.455C346.416 401.958 343.758 403.5 340.868 403.5H210.578C207.703 403.5 205.045 401.97 203.608 399.486C184.105 365.928 48.0969 131.933 15.4121 75.7121C13.9595 73.2163 13.9595 70.1348 15.3967 67.6313C16.8339 65.1293 19.5074 63.587 22.3973 63.587H203.685C206.56 63.587 209.233 65.1247 210.67 67.6221C220.592 84.8221 259.612 152.404 275.7 180.263Z" fill="white"/>
</g>
<defs>
<clipPath id="clip0_14_73">
<rect width="807" height="807" fill="white"/>
</clipPath>
</defs>
</svg>
