<svg width="883" height="441" viewBox="0 0 883 441" fill="none" xmlns="http://www.w3.org/2000/svg">
<path d="M34.5874 158.878H84.5417C91.6603 158.878 98.0052 160.362 103.576 163.33C109.147 166.298 113.542 170.595 116.761 176.222C120.042 181.787 121.682 188.433 121.682 196.162C121.682 203.891 120.29 210.229 117.504 215.175C114.78 220.06 111.5 223.739 107.662 226.212C103.824 228.624 100.265 230.077 96.9838 230.571L126.789 281.304H95.5911L69.0354 232.705H62.3501V281.304H34.5874V158.878ZM62.3501 213.506H74.6065C79.5586 213.506 83.8917 212.3 87.6058 209.889C91.3199 207.477 93.1769 203.211 93.1769 197.09C93.1769 190.969 91.3508 186.733 87.6987 184.384C84.0465 181.972 79.7443 180.766 74.7922 180.766H62.3501V213.506Z" fill="white"/>
<path d="M136.526 158.878H214.8V183.178H164.196V208.127H214.336V231.684H164.196V257.004H214.8V281.304H136.526V158.878Z" fill="white"/>
<path d="M480.602 158.878H507.102L507.307 258.349H551.331V281.304H480.602V158.878Z" fill="white"/>
<path d="M631.076 232.055H588.736V281.304H561.066V158.878H588.736V207.848H631.076V158.878H658.653V281.304H631.076V232.055Z" fill="white"/>
<path fill-rule="evenodd" clip-rule="evenodd" d="M429.399 190.278C428.61 190.278 427.882 189.856 427.487 189.173C427.093 188.489 427.093 187.647 427.49 186.965C427.717 186.578 427.947 186.183 428.171 185.796C428.568 185.114 428.571 184.272 428.177 183.588C427.782 182.905 427.054 182.483 426.262 182.483C416.89 182.483 393.169 182.483 387.409 182.483C386.621 182.483 385.892 182.063 385.498 181.381C383.535 177.982 377.518 167.573 374.404 162.186C374.01 161.504 374.01 160.663 374.404 159.981C374.798 159.298 375.527 158.878 376.315 158.878C392.034 158.878 451.589 158.878 467.33 158.878C468.122 158.878 468.85 159.3 469.245 159.984C469.639 160.667 469.636 161.509 469.239 162.191C465.204 169.127 456.033 184.889 453.534 189.181C453.14 189.86 452.414 190.278 451.626 190.278C447.698 190.278 435.643 190.278 429.399 190.278Z" fill="white"/>
<path fill-rule="evenodd" clip-rule="evenodd" d="M444.494 198.128C445.282 198.128 446.011 198.549 446.405 199.233C446.799 199.917 446.799 200.759 446.402 201.441C438.476 215.06 408.456 266.65 400.567 280.207C400.173 280.886 399.447 281.303 398.659 281.303C397.873 281.303 397.144 280.886 396.75 280.207C391.152 270.584 374.812 242.505 369.189 232.84C368.792 232.157 368.789 231.316 369.183 230.634C369.578 229.948 370.306 229.526 371.098 229.526C377.339 229.526 389.397 229.526 393.325 229.526C394.11 229.526 394.836 229.945 395.233 230.625C395.644 231.333 396.203 232.293 396.75 233.234C397.144 233.914 397.873 234.33 398.659 234.33C399.447 234.33 400.173 233.914 400.567 233.234C405.306 225.09 417.44 204.24 420.358 199.224C420.752 198.545 421.478 198.128 422.267 198.128C426.191 198.128 438.249 198.128 444.494 198.128Z" fill="white"/>
<path fill-rule="evenodd" clip-rule="evenodd" d="M374.577 179.175C374.971 179.858 374.971 180.698 374.577 181.381C374.183 182.063 373.454 182.483 372.666 182.483C372.135 182.483 371.588 182.483 371.055 182.483C370.267 182.483 369.538 182.905 369.144 183.588C368.749 184.272 368.749 185.114 369.146 185.796C373.403 193.108 383.555 210.557 387.812 217.869C388.206 218.552 388.209 219.393 387.815 220.077C387.42 220.761 386.692 221.182 385.903 221.182H363.676C362.888 221.182 362.162 220.765 361.765 220.085C357.659 213.025 334.893 173.903 328.078 162.191C327.681 161.509 327.679 160.667 328.073 159.984C328.467 159.3 329.196 158.878 329.987 158.878C338.077 158.878 356.558 158.878 361.572 158.878C362.36 158.878 363.089 159.298 363.483 159.981C365.446 163.379 371.463 173.788 374.577 179.175Z" fill="white"/>
<path d="M289.745 254.897C295.223 254.897 300.194 254.094 304.66 252.489C309.185 250.883 312.549 249.307 314.752 247.761L326.183 270.42C323.385 272.798 318.592 275.207 311.804 277.645C305.076 280.084 297.068 281.303 287.78 281.303C279.087 281.303 270.93 279.786 263.309 276.753C255.688 273.72 248.96 269.468 243.125 263.997C237.35 258.466 232.795 252.013 229.461 244.638C226.186 237.204 224.549 229.146 224.549 220.463C224.549 211.78 226.186 203.721 229.461 196.287C232.736 188.794 237.261 182.282 243.036 176.751C248.871 171.22 255.599 166.939 263.22 163.906C270.901 160.813 279.087 159.267 287.78 159.267C297.068 159.267 305.076 160.486 311.804 162.924C318.592 165.363 323.385 167.77 326.183 170.149L314.752 192.808C312.549 191.202 309.185 189.626 304.66 188.08C300.194 186.474 295.223 185.672 289.745 185.672C283.672 185.672 278.373 186.623 273.848 188.526C269.323 190.37 265.542 192.927 262.506 196.198C259.469 199.469 257.206 203.156 255.718 207.26C254.229 211.364 253.485 215.675 253.485 220.195C253.485 224.775 254.229 229.146 255.718 233.309C257.206 237.412 259.469 241.1 262.506 244.371C265.542 247.642 269.323 250.229 273.848 252.132C278.373 253.975 283.672 254.897 289.745 254.897Z" fill="white"/>
<path d="M668.391 159.167H746.481V183.409H695.995V208.299H746.017V231.802H695.995V257.062H746.481V281.304H668.391V159.167Z" fill="white"/>
<path d="M756.216 158.878H806.171C813.289 158.878 819.634 160.362 825.205 163.33C830.776 166.298 835.171 170.595 838.39 176.222C841.671 181.787 843.311 188.433 843.311 196.162C843.311 203.891 841.919 210.229 839.133 215.175C836.409 220.06 833.129 223.739 829.291 226.212C825.453 228.624 821.894 230.077 818.613 230.571L848.418 281.304H817.22L790.664 232.705H783.979V281.304H756.216V158.878ZM783.979 213.506H796.235C801.188 213.506 805.521 212.3 809.235 209.889C812.949 207.477 814.806 203.211 814.806 197.09C814.806 190.969 812.98 186.733 809.328 184.384C805.675 181.972 801.373 180.766 796.421 180.766H783.979V213.506Z" fill="white"/>
</svg>
